# Blender 4.5.7 LTS
# www.blender.org
mtllib jingkuang.mtl
o M_Rashid_v5_Body_3P_HD.001
v -0.059254 0.257000 0.060559
v -0.063466 0.257188 0.066197
v -0.060093 0.257128 0.066892
v -0.064597 0.257027 0.059584
v -0.063527 0.252206 0.065872
v -0.064601 0.252410 0.059545
v -0.059285 0.252317 0.060483
v -0.060198 0.252251 0.066452
v 0.066502 0.257188 0.066197
v 0.062290 0.257000 0.060559
v 0.063130 0.257128 0.066892
v 0.067633 0.257027 0.059584
v 0.063234 0.252251 0.066452
v 0.062321 0.252317 0.060483
v 0.066564 0.252206 0.065872
v 0.067638 0.252410 0.059545
v -0.063940 0.248632 0.064700
v -0.059176 0.248693 0.058791
v -0.059136 0.248690 0.062577
v -0.065816 0.248657 0.056267
v -0.059253 0.252288 0.058697
v -0.063967 0.252209 0.064769
v -0.059163 0.252241 0.062644
v -0.065894 0.252313 0.056176
v -0.063987 0.257079 0.064739
v -0.059221 0.257167 0.058833
v -0.059181 0.257136 0.062619
v -0.065800 0.257139 0.056225
v 0.066977 0.248632 0.064700
v 0.062132 0.248690 0.062577
v 0.062171 0.248693 0.058790
v 0.068852 0.248657 0.056267
v 0.067004 0.252209 0.064769
v 0.062249 0.252288 0.058697
v 0.062158 0.252242 0.062644
v 0.068930 0.252313 0.056176
v 0.067023 0.257079 0.064739
v 0.062176 0.257137 0.062619
v 0.062216 0.257168 0.058833
v 0.068836 0.257139 0.056225
v -0.063967 0.252209 0.064769
v -0.063940 0.248632 0.064700
v -0.059136 0.248690 0.062577
v -0.059163 0.252241 0.062644
v -0.059176 0.248693 0.058791
v -0.059253 0.252288 0.058697
v -0.065816 0.248657 0.056267
v -0.065894 0.252313 0.056176
v -0.075690 0.260929 0.029771
v -0.075021 0.250738 0.035009
v -0.077931 0.260895 0.034415
v -0.077029 0.250369 0.040130
v -0.071772 0.260658 0.067384
v -0.071330 0.247380 0.068657
v -0.071567 0.259200 0.067732
v -0.071377 0.259280 0.069144
v -0.070603 0.260489 0.067992
v -0.070519 0.260436 0.069379
v -0.079161 0.238118 -0.062317
v -0.075954 0.238090 -0.062799
v -0.077409 0.246589 -0.054308
v -0.079935 0.246377 -0.054108
v -0.078777 0.252641 -0.043068
v -0.080562 0.252589 -0.042925
v -0.078911 0.255642 -0.022308
v -0.080808 0.255664 -0.022125
v -0.078071 0.252750 -0.001875
v -0.080030 0.252925 -0.001416
v -0.071140 0.250818 0.031548
v -0.075021 0.250738 0.035009
v 0.077295 0.250738 0.035009
v 0.077965 0.260929 0.029771
v 0.080205 0.260895 0.034415
v 0.079304 0.250369 0.040130
v 0.074809 0.260658 0.067384
v 0.074367 0.247380 0.068657
v 0.074603 0.259200 0.067732
v 0.073639 0.260489 0.067992
v 0.074413 0.259280 0.069144
v 0.073555 0.260436 0.069379
v 0.079605 0.238118 -0.062317
v 0.079244 0.239882 -0.066178
v 0.079280 0.242985 -0.065244
v 0.080379 0.246377 -0.054108
v 0.080219 0.249931 -0.055410
v 0.081006 0.252589 -0.042925
v 0.081033 0.255636 -0.043718
v 0.081347 0.259490 -0.023274
v 0.081252 0.255664 -0.022125
v 0.081051 0.260668 -0.007121
v 0.080474 0.252925 -0.001416
v 0.077965 0.260929 0.029771
v 0.077295 0.250738 0.035009
v 0.019348 0.232306 0.067589
v 0.017713 0.235449 0.062041
v 0.013621 0.243361 0.059506
v 0.010508 0.249778 0.072098
v 0.009492 0.251908 0.068453
v 0.006872 0.254482 0.071503
v 0.007103 0.253937 0.074744
v 0.001476 0.256284 0.073282
v 0.001476 0.255617 0.076345
v -0.004152 0.253937 0.074741
v -0.003902 0.254510 0.071425
v -0.007545 0.249793 0.072041
v -0.006579 0.251704 0.068674
v -0.010903 0.243433 0.059560
v -0.016397 0.232306 0.067594
v -0.015066 0.234867 0.062482
v -0.014002 0.231175 0.067745
v -0.012788 0.234662 0.061997
v -0.009435 0.242852 0.059316
v -0.005569 0.248964 0.072192
v -0.005389 0.250924 0.068668
v -0.002867 0.253042 0.071146
v -0.002776 0.252110 0.074549
v 0.001476 0.253540 0.072650
v 0.001476 0.252829 0.075691
v 0.005728 0.252110 0.074552
v 0.005832 0.253023 0.071210
v 0.008532 0.248948 0.072250
v 0.008302 0.251128 0.068447
v 0.012143 0.242776 0.059260
v 0.016954 0.231175 0.067745
v 0.015631 0.234598 0.061995
v -0.064597 0.257027 0.059584
v -0.063527 0.252206 0.065872
v -0.063466 0.257188 0.066197
v -0.064601 0.252410 0.059545
v -0.059254 0.257000 0.060559
v -0.059285 0.252317 0.060483
v -0.060198 0.252251 0.066452
v -0.060093 0.257128 0.066892
v 0.066564 0.252206 0.065872
v 0.067633 0.257027 0.059584
v 0.066502 0.257188 0.066197
v 0.067638 0.252410 0.059545
v 0.062290 0.257000 0.060559
v 0.062321 0.252317 0.060483
v 0.063234 0.252251 0.066452
v 0.063130 0.257128 0.066892
v 0.006644 0.249134 0.077887
v 0.001518 0.249788 0.079099
v 0.001518 0.250094 0.076042
v 0.006322 0.249478 0.074857
v 0.009793 0.247184 0.075316
v 0.009799 0.247651 0.071902
v 0.010799 0.244051 0.074874
v 0.010714 0.244194 0.071549
v 0.013641 0.232842 0.074121
v 0.013679 0.232821 0.070888
v 0.015947 0.226799 0.073774
v 0.015959 0.226845 0.070679
v 0.020647 0.221717 0.073160
v 0.020751 0.221807 0.070144
v 0.035429 0.219428 0.071891
v 0.035353 0.219580 0.068868
v 0.050385 0.220332 0.070602
v 0.050278 0.220495 0.067551
v 0.057525 0.222527 0.070040
v 0.057425 0.222693 0.066958
v 0.061527 0.226533 0.069749
v 0.061435 0.226552 0.066763
v 0.063242 0.231350 0.069655
v 0.063183 0.231384 0.066661
v 0.064876 0.238881 0.069636
v 0.064699 0.238996 0.066375
v 0.066324 0.260715 0.066556
v 0.065714 0.260596 0.070317
v 0.007778 0.256557 0.078198
v 0.001518 0.256917 0.076224
v 0.001518 0.256480 0.079409
v 0.006979 0.257028 0.075174
v 0.013674 0.258454 0.075614
v 0.013007 0.258807 0.072321
v 0.016077 0.260710 0.072401
v 0.016588 0.260487 0.075448
v 0.022508 0.261472 0.072460
v 0.022633 0.261228 0.075283
v 0.038271 0.261778 0.073962
v 0.038000 0.261921 0.071200
v 0.057576 0.261280 0.068554
v 0.058147 0.261053 0.071563
v 0.065714 0.260596 0.070317
v 0.066324 0.260715 0.066556
v 0.061098 0.239676 0.070075
v 0.060678 0.251152 0.070685
v 0.059951 0.251102 0.067548
v 0.060310 0.239777 0.067093
v 0.060251 0.233161 0.070059
v 0.059371 0.232986 0.067195
v 0.057917 0.228952 0.067130
v 0.058683 0.228496 0.070095
v 0.055398 0.226180 0.067414
v 0.056163 0.225368 0.070325
v 0.049509 0.223103 0.070812
v 0.049083 0.224044 0.067859
v 0.035370 0.223362 0.069034
v 0.035424 0.222300 0.072032
v 0.022654 0.225330 0.070188
v 0.022219 0.224345 0.073241
v 0.018092 0.228979 0.073859
v 0.018201 0.229683 0.070724
v 0.016187 0.234466 0.074197
v 0.017016 0.234931 0.070931
v 0.014143 0.244568 0.074816
v 0.015013 0.244938 0.071311
v 0.015448 0.249934 0.071564
v 0.014742 0.249980 0.075252
v 0.018447 0.254402 0.071815
v 0.017927 0.254730 0.075375
v 0.022965 0.256465 0.075109
v 0.023061 0.255991 0.071981
v 0.038246 0.257062 0.073754
v 0.037780 0.256584 0.070870
v 0.053962 0.255784 0.068766
v 0.054554 0.256181 0.071768
v 0.058297 0.254013 0.067855
v 0.058948 0.254188 0.071040
v 0.060678 0.251152 0.070685
v 0.059951 0.251102 0.067548
v 0.006644 0.249134 0.077887
v 0.001518 0.256480 0.079409
v 0.001518 0.249788 0.079099
v 0.007778 0.256557 0.078198
v 0.009793 0.247184 0.075316
v 0.013674 0.258454 0.075614
v 0.014742 0.249980 0.075252
v 0.014143 0.244568 0.074816
v 0.017927 0.254730 0.075375
v 0.010799 0.244051 0.074874
v 0.016588 0.260487 0.075448
v 0.016187 0.234466 0.074197
v 0.022965 0.256465 0.075109
v 0.013641 0.232842 0.074121
v 0.022633 0.261228 0.075283
v 0.018092 0.228979 0.073859
v 0.038246 0.257062 0.073754
v 0.015947 0.226799 0.073774
v 0.038271 0.261778 0.073962
v 0.022219 0.224345 0.073241
v 0.054554 0.256181 0.071768
v 0.020647 0.221717 0.073160
v 0.058147 0.261053 0.071563
v 0.035429 0.219428 0.071891
v 0.058948 0.254188 0.071040
v 0.035424 0.222300 0.072032
v 0.065714 0.260596 0.070317
v 0.049509 0.223103 0.070812
v 0.060678 0.251152 0.070685
v 0.050385 0.220332 0.070602
v 0.064876 0.238881 0.069636
v 0.056163 0.225368 0.070325
v 0.061098 0.239676 0.070075
v 0.057525 0.222527 0.070040
v 0.060251 0.233161 0.070059
v 0.061527 0.226533 0.069749
v 0.063242 0.231350 0.069655
v 0.058683 0.228496 0.070095
v 0.001518 0.249788 0.079099
v -0.003608 0.249134 0.077887
v 0.001518 0.250094 0.076042
v -0.003285 0.249478 0.074857
v -0.006756 0.247184 0.075316
v -0.006763 0.247651 0.071902
v -0.007763 0.244051 0.074874
v -0.007678 0.244194 0.071549
v -0.010516 0.232746 0.074003
v -0.010553 0.232725 0.070888
v -0.012616 0.226845 0.073702
v -0.012628 0.226892 0.070608
v -0.017911 0.221564 0.073160
v -0.018015 0.221654 0.070144
v -0.032392 0.219385 0.071891
v -0.032317 0.219537 0.068868
v -0.047441 0.220285 0.070602
v -0.047334 0.220449 0.067551
v -0.054741 0.222599 0.070040
v -0.054642 0.222765 0.066958
v -0.058373 0.226456 0.069987
v -0.058281 0.226474 0.067001
v -0.060292 0.231254 0.069876
v -0.060233 0.231288 0.066882
v -0.061743 0.238881 0.069954
v -0.061279 0.238996 0.066693
v -0.063287 0.260715 0.066556
v -0.062687 0.260596 0.070317
v 0.001518 0.256917 0.076224
v -0.004742 0.256557 0.078198
v 0.001518 0.256480 0.079409
v -0.003943 0.257028 0.075174
v -0.010637 0.258454 0.075614
v -0.009971 0.258807 0.072321
v -0.013040 0.260710 0.072401
v -0.013552 0.260487 0.075448
v -0.019471 0.261472 0.072460
v -0.019597 0.261228 0.075283
v -0.035235 0.261778 0.073962
v -0.034964 0.261921 0.071200
v -0.054539 0.261280 0.068554
v -0.055110 0.261053 0.071563
v -0.062687 0.260596 0.070317
v -0.063287 0.260715 0.066556
v -0.058152 0.239676 0.070393
v -0.056918 0.251452 0.067524
v -0.057645 0.251502 0.070661
v -0.057365 0.239777 0.067411
v -0.057224 0.232656 0.070281
v -0.056344 0.232481 0.067416
v -0.055048 0.229221 0.067369
v -0.055815 0.228765 0.070333
v -0.052216 0.226075 0.067414
v -0.052981 0.225263 0.070325
v -0.046565 0.223056 0.070812
v -0.046139 0.223997 0.067859
v -0.032334 0.223320 0.069034
v -0.032387 0.222257 0.072032
v -0.019800 0.225295 0.070188
v -0.019365 0.224310 0.073241
v -0.015038 0.229095 0.073788
v -0.015786 0.229890 0.070652
v -0.013146 0.234529 0.074079
v -0.013975 0.234994 0.070931
v -0.010964 0.244568 0.074669
v -0.011834 0.244938 0.071423
v -0.012627 0.250385 0.071564
v -0.011920 0.250431 0.075252
v -0.015115 0.254121 0.071815
v -0.014595 0.254448 0.075375
v -0.020137 0.256602 0.075109
v -0.020233 0.256129 0.071981
v -0.035210 0.257090 0.073754
v -0.034744 0.256612 0.070870
v -0.051335 0.255868 0.068766
v -0.051927 0.256265 0.071768
v -0.055584 0.254669 0.071061
v -0.054933 0.254493 0.067876
v -0.057645 0.251502 0.070661
v -0.056918 0.251452 0.067524
v 0.001518 0.256480 0.079409
v -0.003608 0.249134 0.077887
v 0.001518 0.249788 0.079099
v -0.004742 0.256557 0.078198
v -0.006756 0.247184 0.075316
v -0.010637 0.258454 0.075614
v -0.011920 0.250431 0.075252
v -0.010964 0.244568 0.074669
v -0.014595 0.254448 0.075375
v -0.007763 0.244051 0.074874
v -0.013552 0.260487 0.075448
v -0.013146 0.234529 0.074079
v -0.020137 0.256602 0.075109
v -0.010516 0.232746 0.074003
v -0.019597 0.261228 0.075283
v -0.015038 0.229095 0.073788
v -0.035235 0.261778 0.073962
v -0.012616 0.226845 0.073702
v -0.035210 0.257090 0.073754
v -0.019365 0.224310 0.073241
v -0.051927 0.256265 0.071768
v -0.017911 0.221564 0.073160
v -0.055110 0.261053 0.071563
v -0.032392 0.219385 0.071891
v -0.055584 0.254669 0.071061
v -0.032387 0.222257 0.072032
v -0.062687 0.260596 0.070317
v -0.046565 0.223056 0.070812
v -0.057645 0.251502 0.070661
v -0.047441 0.220285 0.070602
v -0.061743 0.238881 0.069954
v -0.052981 0.225263 0.070325
v -0.058152 0.239676 0.070393
v -0.054741 0.222599 0.070040
v -0.057224 0.232656 0.070281
v -0.058373 0.226456 0.069987
v -0.060292 0.231254 0.069876
v -0.055815 0.228765 0.070333
v -0.080030 0.252925 -0.001416
v -0.075021 0.250738 0.035009
v -0.075690 0.260929 0.029771
v -0.080607 0.260668 -0.007121
v -0.080808 0.255664 -0.022125
v -0.080902 0.259490 -0.023274
v -0.080562 0.252589 -0.042925
v -0.080589 0.255636 -0.043718
v -0.079775 0.249931 -0.055410
v -0.079935 0.246377 -0.054108
v -0.078836 0.242985 -0.065244
v -0.079161 0.238118 -0.062317
v -0.078800 0.239882 -0.066178
v -0.077029 0.250369 0.040130
v -0.075021 0.250738 0.035009
v -0.071140 0.250818 0.031548
v -0.062729 0.247126 0.070021
v -0.071330 0.247380 0.068657
v -0.075882 0.242973 -0.065755
v -0.075954 0.238090 -0.062799
v -0.075717 0.239851 -0.066733
v -0.077409 0.246589 -0.054308
v -0.077612 0.250025 -0.055597
v -0.078777 0.252641 -0.043068
v -0.078867 0.255635 -0.043864
v -0.079017 0.259513 -0.023466
v -0.078911 0.255642 -0.022308
v -0.078277 0.260638 -0.007568
v -0.078071 0.252750 -0.001875
v -0.072046 0.260937 0.025704
v -0.071140 0.250818 0.031548
v -0.065800 0.257139 0.056225
v -0.065892 0.260831 0.056293
v -0.062729 0.247126 0.070021
v -0.063987 0.257079 0.064739
v -0.063820 0.260689 0.064797
v -0.063027 0.260648 0.068646
v -0.062913 0.258762 0.069072
v -0.062703 0.258762 0.070574
v -0.063688 0.260456 0.069003
v -0.063561 0.260475 0.070485
v -0.063688 0.260456 0.069003
v -0.070519 0.260436 0.069379
v -0.063561 0.260475 0.070485
v -0.070603 0.260489 0.067992
v -0.063027 0.260648 0.068646
v -0.071772 0.260658 0.067384
v -0.063820 0.260689 0.064797
v -0.059315 0.260959 0.058903
v -0.059274 0.260862 0.062688
v -0.065892 0.260831 0.056293
v -0.077931 0.260895 0.034415
v -0.072046 0.260937 0.025704
v -0.075690 0.260929 0.029771
v -0.080607 0.260668 -0.007121
v -0.078277 0.260638 -0.007568
v -0.080902 0.259490 -0.023274
v -0.079017 0.259513 -0.023466
v -0.080589 0.255636 -0.043718
v -0.078867 0.255635 -0.043864
v -0.079775 0.249931 -0.055410
v -0.077612 0.250025 -0.055597
v -0.078836 0.242985 -0.065244
v -0.075882 0.242973 -0.065755
v -0.078800 0.239882 -0.066178
v -0.075717 0.239851 -0.066733
v -0.075954 0.238090 -0.062799
v -0.079161 0.238118 -0.062317
v 0.068852 0.248657 0.056267
v 0.062249 0.252288 0.058697
v 0.068930 0.252313 0.056176
v 0.062171 0.248693 0.058790
v 0.062158 0.252242 0.062644
v 0.062132 0.248690 0.062577
v 0.067004 0.252209 0.064769
v 0.066977 0.248632 0.064700
v 0.073415 0.250818 0.031548
v 0.080474 0.252925 -0.001416
v 0.077295 0.250738 0.035009
v 0.078515 0.252750 -0.001875
v 0.081252 0.255664 -0.022125
v 0.079355 0.255642 -0.022308
v 0.081006 0.252589 -0.042925
v 0.079221 0.252641 -0.043068
v 0.080379 0.246377 -0.054108
v 0.077854 0.246589 -0.054308
v 0.079605 0.238118 -0.062317
v 0.076398 0.238090 -0.062799
v 0.079304 0.250369 0.040130
v 0.073415 0.250818 0.031548
v 0.077295 0.250738 0.035009
v 0.065765 0.247126 0.070021
v 0.074367 0.247380 0.068657
v 0.076326 0.242973 -0.065755
v 0.076161 0.239851 -0.066733
v 0.076398 0.238090 -0.062799
v 0.077854 0.246589 -0.054308
v 0.078056 0.250025 -0.055597
v 0.079221 0.252641 -0.043068
v 0.079311 0.255635 -0.043864
v 0.079461 0.259513 -0.023466
v 0.079355 0.255642 -0.022308
v 0.078721 0.260638 -0.007568
v 0.078515 0.252750 -0.001875
v 0.074321 0.260937 0.025704
v 0.073415 0.250818 0.031548
v 0.068836 0.257139 0.056225
v 0.068928 0.260831 0.056293
v 0.065765 0.247126 0.070021
v 0.067023 0.257079 0.064739
v 0.066063 0.260648 0.068646
v 0.066856 0.260689 0.064797
v 0.065950 0.258762 0.069072
v 0.065740 0.258762 0.070574
v 0.066725 0.260456 0.069003
v 0.066598 0.260475 0.070485
v 0.073555 0.260436 0.069379
v 0.066725 0.260456 0.069003
v 0.066598 0.260475 0.070485
v 0.073639 0.260489 0.067992
v 0.066063 0.260648 0.068646
v 0.074809 0.260658 0.067384
v 0.066856 0.260689 0.064797
v 0.062310 0.260960 0.058903
v 0.062270 0.260863 0.062688
v 0.068928 0.260831 0.056293
v 0.080205 0.260895 0.034415
v 0.074321 0.260937 0.025704
v 0.077965 0.260929 0.029771
v 0.081051 0.260668 -0.007121
v 0.078721 0.260638 -0.007568
v 0.081347 0.259490 -0.023274
v 0.079461 0.259513 -0.023466
v 0.081033 0.255636 -0.043718
v 0.079311 0.255635 -0.043864
v 0.080219 0.249931 -0.055410
v 0.078056 0.250025 -0.055597
v 0.079280 0.242985 -0.065244
v 0.076326 0.242973 -0.065755
v 0.079244 0.239882 -0.066178
v 0.076161 0.239851 -0.066733
v 0.076398 0.238090 -0.062799
v 0.079605 0.238118 -0.062317
v 0.010508 0.249778 0.072098
v 0.016954 0.231175 0.067745
v 0.019348 0.232306 0.067589
v 0.008532 0.248948 0.072250
v 0.007103 0.253937 0.074744
v 0.005728 0.252110 0.074552
v 0.001476 0.255617 0.076345
v 0.001476 0.252829 0.075691
v -0.002776 0.252110 0.074549
v -0.004152 0.253937 0.074741
v -0.005569 0.248964 0.072192
v -0.007545 0.249793 0.072041
v -0.014002 0.231175 0.067745
v -0.016397 0.232306 0.067594
v 0.017713 0.235449 0.062041
v 0.019348 0.232306 0.067589
v 0.016954 0.231175 0.067745
v 0.015631 0.234598 0.061995
v 0.013621 0.243361 0.059506
v 0.012143 0.242776 0.059260
v 0.008302 0.251128 0.068447
v 0.009492 0.251908 0.068453
v 0.006872 0.254482 0.071503
v 0.005832 0.253023 0.071210
v 0.001476 0.256284 0.073282
v 0.001476 0.253540 0.072650
v -0.002867 0.253042 0.071146
v -0.003902 0.254510 0.071425
v -0.005389 0.250924 0.068668
v -0.006579 0.251704 0.068674
v -0.010903 0.243433 0.059560
v -0.009435 0.242852 0.059316
v -0.012788 0.234662 0.061997
v -0.015066 0.234867 0.062482
v -0.014002 0.231175 0.067745
v -0.016397 0.232306 0.067594
v 0.006979 0.257028 0.075174
v 0.001518 0.250094 0.076042
v 0.001518 0.256917 0.076224
v 0.006322 0.249478 0.074857
v 0.009799 0.247651 0.071902
v 0.013007 0.258807 0.072321
v 0.015448 0.249934 0.071564
v 0.015013 0.244938 0.071311
v 0.018447 0.254402 0.071815
v 0.010714 0.244194 0.071549
v 0.016077 0.260710 0.072401
v 0.017016 0.234931 0.070931
v 0.022508 0.261472 0.072460
v 0.013679 0.232821 0.070888
v 0.023061 0.255991 0.071981
v 0.018201 0.229683 0.070724
v 0.037780 0.256584 0.070870
v 0.015959 0.226845 0.070679
v 0.038000 0.261921 0.071200
v 0.022654 0.225330 0.070188
v 0.053962 0.255784 0.068766
v 0.020751 0.221807 0.070144
v 0.057576 0.261280 0.068554
v 0.035353 0.219580 0.068868
v 0.058297 0.254013 0.067855
v 0.035370 0.223362 0.069034
v 0.066324 0.260715 0.066556
v 0.049083 0.224044 0.067859
v 0.059951 0.251102 0.067548
v 0.050278 0.220495 0.067551
v 0.064699 0.238996 0.066375
v 0.055398 0.226180 0.067414
v 0.060310 0.239777 0.067093
v 0.057425 0.222693 0.066958
v 0.059371 0.232986 0.067195
v 0.061435 0.226552 0.066763
v 0.063183 0.231384 0.066661
v 0.057917 0.228952 0.067130
v 0.001518 0.250094 0.076042
v -0.003943 0.257028 0.075174
v 0.001518 0.256917 0.076224
v -0.003285 0.249478 0.074857
v -0.006763 0.247651 0.071902
v -0.009971 0.258807 0.072321
v -0.012627 0.250385 0.071564
v -0.015115 0.254121 0.071815
v -0.011834 0.244938 0.071423
v -0.013040 0.260710 0.072401
v -0.007678 0.244194 0.071549
v -0.020233 0.256129 0.071981
v -0.013975 0.234994 0.070931
v -0.019471 0.261472 0.072460
v -0.010553 0.232725 0.070888
v -0.034964 0.261921 0.071200
v -0.015786 0.229890 0.070652
v -0.034744 0.256612 0.070870
v -0.012628 0.226892 0.070608
v -0.051335 0.255868 0.068766
v -0.019800 0.225295 0.070188
v -0.054539 0.261280 0.068554
v -0.018015 0.221654 0.070144
v -0.054933 0.254493 0.067876
v -0.032317 0.219537 0.068868
v -0.063287 0.260715 0.066556
v -0.032334 0.223320 0.069034
v -0.056918 0.251452 0.067524
v -0.046139 0.223997 0.067859
v -0.061279 0.238996 0.066693
v -0.047334 0.220449 0.067551
v -0.057365 0.239777 0.067411
v -0.052216 0.226075 0.067414
v -0.056344 0.232481 0.067416
v -0.054642 0.222765 0.066958
v -0.060233 0.231288 0.066882
v -0.058281 0.226474 0.067001
v -0.055048 0.229221 0.067369
v -0.059315 0.260959 0.058903
v -0.065800 0.257139 0.056225
v -0.065892 0.260831 0.056293
v -0.059221 0.257167 0.058833
v -0.059181 0.257136 0.062619
v -0.059274 0.260862 0.062688
v -0.063820 0.260689 0.064797
v -0.063987 0.257079 0.064739
v -0.062703 0.258762 0.070574
v -0.071330 0.247380 0.068657
v -0.062729 0.247126 0.070021
v -0.071377 0.259280 0.069144
v -0.070519 0.260436 0.069379
v -0.063561 0.260475 0.070485
v 0.068836 0.257139 0.056225
v 0.062310 0.260960 0.058903
v 0.068928 0.260831 0.056293
v 0.062216 0.257168 0.058833
v 0.062176 0.257137 0.062619
v 0.062270 0.260863 0.062688
v 0.066856 0.260689 0.064797
v 0.067023 0.257079 0.064739
v 0.074367 0.247380 0.068657
v 0.065740 0.258762 0.070574
v 0.065765 0.247126 0.070021
v 0.074413 0.259280 0.069144
v 0.073555 0.260436 0.069379
v 0.066598 0.260475 0.070485
vn 0.0195 0.9996 -0.0197
vn 0.0195 0.9996 -0.0196
vn 0.0196 0.9996 -0.0196
vn 0.0040 -0.9998 -0.0198
vn 0.0039 -0.9998 -0.0197
vn 0.0039 -0.9998 -0.0198
vn 0.0040 -0.9998 -0.0197
vn -0.0117 0.9997 -0.0196
vn 0.0039 -0.9998 -0.0199
vn 0.0118 -0.9999 0.0040
vn 0.0119 -0.9999 0.0039
vn 0.0118 -0.9999 0.0039
vn 0.0119 -0.9999 0.0040
vn 0.0040 0.9998 0.0196
vn 0.0039 0.9998 0.0196
vn 0.0119 -0.9999 -0.0040
vn 0.0119 -0.9999 -0.0039
vn -0.0040 -1.0000 0.0039
vn -0.0039 -1.0000 0.0040
vn -0.0039 -1.0000 0.0039
vn -0.0040 -1.0000 0.0040
vn -0.0040 -1.0000 -0.0039
vn -0.0039 -1.0000 -0.0040
vn -0.0040 -1.0000 -0.0040
vn 0.7881 0.0039 0.6155
vn 0.4043 -0.0118 0.9146
vn 0.4043 -0.0118 0.9145
vn 0.7813 0.0039 0.6242
vn 0.6994 -0.0022 -0.7147
vn 0.6833 -0.0039 -0.7301
vn 0.3584 -0.0118 -0.9335
vn 0.3583 -0.0119 -0.9335
vn -0.9960 -0.0593 0.0666
vn -0.8777 -0.2740 -0.3932
vn -0.9881 -0.0119 0.1532
vn -0.9811 0.0040 0.1934
vn -0.9812 0.0040 0.1931
vn -0.9530 0.0910 0.2890
vn -0.9807 0.1461 0.1300
vn -0.7916 0.5472 0.2720
vn -0.8001 0.5952 0.0749
vn 0.1067 -0.7706 0.6283
vn 0.1144 -0.6905 0.7142
vn 0.1143 -0.6905 0.7142
vn 0.1059 -0.7807 0.6159
vn 0.0591 -0.9486 0.3109
vn 0.0512 -0.9565 0.2873
vn -0.0199 -0.9997 0.0119
vn -0.0277 -0.9996 -0.0040
vn -0.0516 -0.9964 -0.0675
vn -0.0512 -0.9964 -0.0670
vn -0.0433 -0.9981 -0.0434
vn -0.0434 -0.9981 -0.0434
vn 0.9969 -0.0665 0.0427
vn 0.8795 -0.2721 -0.3904
vn 0.8795 -0.2721 -0.3905
vn 0.9914 -0.0197 0.1290
vn 0.9856 -0.0039 0.1691
vn 0.9856 -0.0039 0.1689
vn 0.9537 0.0903 0.2869
vn 0.7945 0.5438 0.2703
vn 0.9810 0.1450 0.1290
vn 0.8029 0.5914 0.0744
vn 0.9951 0.0117 -0.0982
vn 0.9951 0.0118 -0.0983
vn 0.9964 0.0195 -0.0821
vn 0.9966 0.0117 -0.0820
vn 0.9972 0.0039 -0.0743
vn 0.9996 -0.0118 -0.0274
vn 0.9996 -0.0274 0.0117
vn 0.9994 -0.0274 0.0196
vn 0.9974 -0.0274 0.0665
vn 0.9964 -0.0195 0.0821
vn 0.9959 -0.0117 0.0898
vn 0.8920 0.4519 -0.0039
vn 0.8920 0.4520 -0.0040
vn 0.8889 0.4582 0.0039
vn 0.8888 0.4582 0.0039
vn 0.5594 0.8175 0.1369
vn 0.4817 0.8655 0.1371
vn 0.0039 0.9843 0.1764
vn -0.4752 0.8678 0.1453
vn -0.5451 0.8270 0.1372
vn -0.8870 0.4613 0.0197
vn -0.8838 0.4674 0.0196
vn -0.8904 0.4551 0.0119
vn -0.8998 0.4361 -0.0119
vn 0.9172 -0.3897 -0.0827
vn 0.9210 -0.3880 -0.0353
vn 0.9124 -0.3991 -0.0911
vn 0.9137 -0.3961 -0.0905
vn 0.5181 -0.8182 -0.2491
vn 0.3985 -0.8872 -0.2326
vn 0.0040 -0.9685 -0.2490
vn -0.3918 -0.8900 -0.2334
vn -0.5215 -0.8156 -0.2507
vn -0.9136 -0.3995 -0.0755
vn -0.9136 -0.3995 -0.0754
vn -0.9175 -0.3932 -0.0596
vn -0.9160 -0.4006 -0.0198
vn -0.9854 0.0039 0.1702
vn -0.8150 0.0118 -0.5793
vn -0.9854 0.0039 0.1701
vn -0.8087 0.0118 -0.5882
vn 0.8616 -0.0038 -0.5075
vn 0.8581 -0.0039 -0.5134
vn 0.9893 -0.0196 0.1447
vn 0.9856 0.0038 0.1689
vn 0.9856 0.0039 0.1689
vn 0.8176 0.0117 -0.5756
vn 0.8114 0.0117 -0.5844
vn -0.8596 -0.0040 -0.5110
vn -0.8561 -0.0039 -0.5168
vn -0.9891 -0.0197 0.1458
vn 0.0036 -0.9958 -0.0913
vn -0.2960 -0.9509 -0.0907
vn 0.0037 -0.9958 -0.0913
vn -0.3695 -0.9255 -0.0834
vn -0.7557 -0.6529 -0.0514
vn -0.8343 -0.5496 -0.0435
vn -0.9666 -0.2564 0.0040
vn -0.9685 -0.2491 0.0040
vn -0.9599 -0.2804 0.0039
vn -0.9577 -0.2877 0.0039
vn -0.8504 -0.5259 -0.0119
vn -0.8445 -0.5352 -0.0198
vn -0.3749 -0.9264 -0.0355
vn -0.3377 -0.9406 -0.0357
vn -0.0513 -0.9977 -0.0435
vn 0.1379 -0.9891 -0.0512
vn 0.1457 -0.9880 -0.0512
vn 0.4702 -0.8811 -0.0514
vn 0.4857 -0.8726 -0.0513
vn 0.8370 -0.5461 -0.0354
vn 0.8369 -0.5462 -0.0353
vn 0.9665 -0.2543 -0.0352
vn 0.9684 -0.2470 -0.0353
vn 0.9922 -0.1216 -0.0275
vn 0.9917 -0.1215 -0.0431
vn 0.9886 -0.0430 0.1446
vn 0.9863 -0.0354 0.1611
vn 0.0039 0.9895 0.1447
vn -0.0978 0.9822 0.1604
vn -0.1140 0.9790 0.1690
vn -0.3179 0.9300 0.1844
vn -0.3343 0.9242 0.1848
vn -0.3015 0.9436 0.1370
vn -0.2709 0.9538 0.1296
vn -0.0511 0.9953 0.0826
vn 0.0196 0.9976 0.0665
vn 0.0585 0.9965 0.0588
vn 0.0586 0.9966 0.0586
vn 0.0747 0.9955 0.0590
vn -0.9596 -0.1458 0.2408
vn -0.9664 0.0197 0.2564
vn -0.9584 -0.1535 0.2406
vn -0.9392 0.2004 0.2790
vn -0.9351 0.2170 0.2801
vn -0.8301 0.4681 0.3029
vn -0.8245 0.4774 0.3038
vn -0.4450 0.8307 0.3347
vn -0.4450 0.8306 0.3347
vn -0.1061 0.9393 0.3262
vn -0.1062 0.9393 0.3262
vn 0.0743 0.9428 0.3248
vn 0.0821 0.9423 0.3246
vn 0.3560 0.8792 0.3166
vn 0.3796 0.8720 0.3090
vn 0.8427 0.4899 0.2234
vn 0.8566 0.4654 0.2229
vn 0.9489 0.2071 0.2382
vn 0.9489 0.2070 0.2382
vn 0.9657 0.0821 0.2463
vn 0.9663 0.0743 0.2465
vn 0.9204 -0.3408 0.1918
vn 0.9204 -0.3407 0.1919
vn 0.6229 -0.7640 0.1684
vn 0.6352 -0.7535 0.1696
vn 0.1386 -0.9782 0.1544
vn 0.1298 -0.9796 0.1534
vn 0.0118 -0.9881 0.1535
vn -0.1066 -0.9811 0.1615
vn -0.5969 -0.7786 0.1937
vn -0.5917 -0.7823 0.1946
vn -0.9584 -0.1541 0.2405
vn -0.9595 -0.1464 0.2408
vn 0.0042 -0.0587 0.9983
vn 0.3791 -0.1133 0.9184
vn 0.3882 -0.1215 0.9135
vn 0.3160 -0.1210 0.9410
vn 0.3097 -0.0981 0.9457
vn 0.0428 -0.0509 0.9978
vn 0.0352 -0.0743 0.9966
vn 0.0430 -0.0196 0.9989
vn 0.0509 -0.0117 0.9986
vn 0.0196 -0.0509 0.9985
vn 0.0743 -0.0274 0.9969
vn 0.0352 -0.0587 0.9977
vn 0.1060 -0.0354 0.9937
vn 0.0430 -0.0665 0.9969
vn 0.1060 -0.0353 0.9937
vn 0.0747 -0.0668 0.9950
vn 0.1215 -0.0431 0.9917
vn 0.0747 -0.0669 0.9950
vn 0.1369 -0.0430 0.9897
vn 0.0903 -0.0511 0.9946
vn 0.1534 -0.0433 0.9872
vn 0.0904 -0.0433 0.9950
vn 0.1446 -0.0352 0.9889
vn 0.1216 -0.0274 0.9922
vn 0.1138 -0.0275 0.9931
vn 0.1060 -0.0432 0.9934
vn 0.1216 -0.0196 0.9924
vn 0.1139 -0.0197 0.9933
vn 0.1138 -0.0274 0.9931
vn 0.0043 -0.9958 -0.0913
vn 0.3031 -0.9487 -0.0905
vn 0.3763 -0.9228 -0.0832
vn 0.7591 -0.6490 -0.0511
vn 0.8367 -0.5460 -0.0432
vn 0.9690 -0.2471 0.0039
vn 0.9690 -0.2472 0.0039
vn 0.9646 -0.2638 0.0039
vn 0.9625 -0.2711 0.0039
vn 0.8409 -0.5408 -0.0197
vn 0.8313 -0.5555 -0.0197
vn 0.3746 -0.9265 -0.0355
vn 0.3444 -0.9381 -0.0356
vn 0.0513 -0.9977 -0.0434
vn 0.0434 -0.9981 -0.0434
vn -0.1302 -0.9902 -0.0513
vn -0.1390 -0.9889 -0.0517
vn -0.4796 -0.8760 -0.0515
vn -0.4857 -0.8726 -0.0513
vn -0.8384 -0.5440 -0.0350
vn -0.8382 -0.5442 -0.0357
vn -0.9687 -0.2412 -0.0593
vn -0.9893 -0.1143 -0.0907
vn -0.9867 -0.1149 -0.1149
vn -0.9895 -0.0434 0.1380
vn -0.9858 -0.0436 0.1623
vn 0.0040 0.9895 0.1447
vn 0.1056 0.9814 0.1603
vn 0.1218 0.9781 0.1689
vn 0.3249 0.9277 0.1840
vn 0.3413 0.9217 0.1843
vn 0.3087 0.9413 0.1367
vn 0.2781 0.9518 0.1293
vn 0.0590 0.9948 0.0826
vn -0.0117 0.9977 0.0665
vn -0.0508 0.9970 0.0586
vn -0.0669 0.9960 0.0590
vn 0.9559 -0.1690 0.2400
vn 0.9667 0.0274 0.2544
vn 0.9560 -0.1688 0.2399
vn 0.9669 0.0196 0.2544
vn 0.9401 0.1990 0.2769
vn 0.9361 0.2155 0.2781
vn 0.8125 0.4985 0.3022
vn 0.4714 0.8142 0.3389
vn 0.4744 0.8115 0.3411
vn 0.1139 0.9385 0.3259
vn -0.0665 0.9434 0.3249
vn -0.0743 0.9429 0.3247
vn -0.3649 0.8663 0.3411
vn -0.3810 0.8593 0.3414
vn -0.8195 0.4822 0.3097
vn -0.8225 0.4762 0.3109
vn -0.9287 0.2331 0.2885
vn -0.9286 0.2332 0.2885
vn -0.9644 0.0669 0.2559
vn -0.9649 0.0591 0.2560
vn -0.9165 -0.3452 0.2023
vn -0.5994 -0.7820 0.1707
vn -0.6132 -0.7714 0.1701
vn -0.1464 -0.9771 0.1543
vn -0.1386 -0.9782 0.1544
vn -0.0039 -0.9881 0.1535
vn -0.0040 -0.9881 0.1535
vn 0.0989 -0.9819 0.1617
vn 0.0988 -0.9819 0.1617
vn 0.6028 -0.7761 0.1852
vn 0.6114 -0.7693 0.1854
vn 0.9559 -0.1695 0.2399
vn 0.9559 -0.1694 0.2399
vn 0.0036 -0.0587 0.9983
vn -0.3724 -0.1137 0.9211
vn -0.3815 -0.1219 0.9163
vn -0.3111 -0.1300 0.9415
vn -0.3094 -0.1058 0.9450
vn -0.0430 -0.0509 0.9978
vn -0.0590 -0.0748 0.9955
vn -0.0274 -0.0196 0.9994
vn -0.0590 -0.0748 0.9954
vn -0.0431 -0.0117 0.9990
vn -0.0274 -0.0509 0.9983
vn -0.0665 -0.0274 0.9974
vn -0.0196 -0.0509 0.9985
vn -0.0983 -0.0354 0.9945
vn -0.0274 -0.0589 0.9979
vn -0.0669 -0.0590 0.9960
vn -0.1138 -0.0353 0.9929
vn -0.0668 -0.0591 0.9960
vn -0.1292 -0.0431 0.9907
vn -0.0827 -0.0511 0.9953
vn -0.1457 -0.0512 0.9880
vn -0.0826 -0.0512 0.9953
vn -0.1215 -0.0353 0.9920
vn -0.0826 -0.0433 0.9956
vn -0.1061 -0.0196 0.9942
vn -0.0827 -0.0433 0.9956
vn -0.1061 -0.0197 0.9942
vn -0.1139 -0.0196 0.9933
vn -0.0830 -0.0517 0.9952
vn -0.1138 -0.0275 0.9931
vn -0.0907 -0.0433 0.9949
vn -0.1139 -0.0275 0.9931
vn -0.0905 -0.0354 0.9953
vn -0.9902 0.0197 0.1381
vn -0.9914 0.0119 0.1303
vn -0.9958 -0.0040 0.0913
vn -0.9994 -0.0277 0.0198
vn -0.9995 -0.0276 0.0118
vn -0.9995 -0.0119 -0.0277
vn -0.9972 0.0040 -0.0749
vn -0.9965 0.0118 -0.0828
vn -0.9950 0.0119 -0.0991
vn -0.9964 0.0197 -0.0827
vn -0.0278 -0.9954 -0.0912
vn -0.0279 -0.9954 -0.0912
vn -0.0595 -0.9941 -0.0911
vn 0.9966 0.0352 0.0743
vn 0.9907 0.0744 0.1136
vn 0.9924 0.0745 0.0981
vn 0.9981 0.0509 0.0352
vn 0.9996 0.0198 -0.0196
vn 0.9996 0.0120 -0.0274
vn 0.9920 -0.0353 -0.1215
vn 0.9830 -0.0509 -0.1763
vn 0.9799 -0.0512 -0.1928
vn 0.9806 -0.0354 -0.1930
vn 0.9781 0.0117 -0.2080
vn 0.9806 0.0354 -0.1930
vn 0.9780 0.0118 -0.2082
vn 0.9764 0.0118 -0.2157
vn 0.9906 0.0039 -0.1370
vn 0.9791 -0.0354 -0.2005
vn 0.9791 0.0357 -0.2002
vn 0.9859 0.1063 -0.1296
vn 0.8948 0.4337 0.1057
vn 0.8986 0.4276 -0.0981
vn -0.0117 0.9894 0.1449
vn 0.0039 0.9998 0.0197
vn -0.0197 0.9841 0.1764
vn -0.0039 0.9983 0.0588
vn -0.0039 0.9998 0.0196
vn -0.0274 0.9992 0.0274
vn -0.0274 0.9993 0.0273
vn -0.0039 0.9999 0.0118
vn 0.0039 0.9999 0.0118
vn 0.0039 1.0000 -0.0039
vn 0.0038 1.0000 -0.0039
vn 0.0038 0.9998 -0.0196
vn -0.0117 0.9925 -0.1216
vn -0.0117 0.9915 -0.1293
vn -0.0352 0.9599 -0.2782
vn -0.0353 0.9549 -0.2947
vn -0.0746 0.8592 -0.5061
vn -0.0746 0.8502 -0.5211
vn -0.1066 0.7300 -0.6751
vn -0.1144 0.6903 -0.7144
vn -0.1461 -0.5569 -0.8176
vn -0.1462 -0.4938 -0.8572
vn -0.0753 -0.9064 -0.4158
vn -0.0752 -0.9064 -0.4156
vn -0.3516 -0.0119 -0.9361
vn -0.3515 -0.0119 -0.9361
vn -0.6751 -0.0039 -0.7377
vn -0.6914 -0.0039 -0.7225
vn -0.7782 0.0039 0.6280
vn -0.7813 0.0039 0.6241
vn -0.3977 -0.0118 0.9174
vn -0.3977 -0.0118 0.9175
vn 0.0591 -0.9969 -0.0512
vn 0.0595 -0.9959 -0.0675
vn 0.0595 -0.9954 -0.0753
vn 0.0355 -0.9994 -0.0040
vn 0.0278 -0.9995 0.0119
vn -0.0433 -0.9568 0.2874
vn -0.0513 -0.9490 0.3111
vn -0.0982 -0.7813 0.6164
vn -0.0989 -0.7712 0.6288
vn -0.1066 -0.6911 0.7148
vn -0.1065 -0.6911 0.7148
vn 0.0675 -0.9936 -0.0911
vn 0.0357 -0.9952 -0.0912
vn 0.0358 -0.9952 -0.0912
vn -0.9906 0.0750 0.1145
vn -0.9906 0.0750 0.1144
vn -0.9966 0.0354 0.0748
vn -0.9923 0.0751 0.0988
vn -0.9981 0.0513 0.0355
vn -0.9996 0.0198 -0.0198
vn -0.9995 0.0119 -0.0276
vn -0.9950 -0.0119 -0.0991
vn -0.9913 -0.0198 -0.1303
vn -0.9891 -0.0197 -0.1458
vn -0.9866 -0.0119 -0.1625
vn -0.9820 0.0355 -0.1854
vn -0.9848 0.0356 -0.1701
vn -0.9803 0.0357 -0.1945
vn -0.9760 0.0118 -0.2173
vn -0.9787 -0.0357 -0.2021
vn -0.9904 0.0040 -0.1381
vn -0.9788 0.0360 -0.2018
vn -0.9856 0.1071 -0.1306
vn -0.8933 0.4368 0.1065
vn -0.8971 0.4307 -0.0988
vn 0.0195 0.9893 0.1448
vn 0.0275 0.9839 0.1765
vn 0.0117 0.9982 0.0588
vn 0.0118 0.9997 0.0196
vn 0.0117 0.9997 0.0195
vn 0.0353 0.9990 0.0274
vn 0.0352 0.9990 0.0274
vn 0.0117 0.9999 0.0119
vn 0.0039 0.9999 0.0117
vn 0.0042 1.0000 -0.0039
vn 0.0040 0.9998 -0.0196
vn 0.0118 0.9997 -0.0196
vn 0.0198 0.9924 -0.1217
vn 0.0195 0.9914 -0.1293
vn 0.0430 0.9596 -0.2781
vn 0.0431 0.9546 -0.2947
vn 0.0822 0.8587 -0.5058
vn 0.0823 0.8497 -0.5208
vn 0.1143 0.7293 -0.6745
vn 0.1222 0.6896 -0.7138
vn 0.1539 -0.5561 -0.8168
vn 0.1538 -0.4932 -0.8562
vn 0.0831 -0.9059 -0.4153
vn 0.0832 -0.9059 -0.4153
vn 0.1525 -0.1682 0.9739
vn 0.1694 -0.2009 0.9648
vn 0.1840 -0.2153 0.9591
vn 0.2475 -0.2946 0.9230
vn 0.2389 -0.2859 0.9280
vn 0.0039 -0.2398 0.9708
vn 0.0040 -0.2398 0.9708
vn -0.2400 -0.2951 0.9248
vn -0.2401 -0.2951 0.9248
vn -0.1765 -0.2157 0.9604
vn -0.1617 -0.2011 0.9661
vn -0.1372 -0.1686 0.9761
vn 0.3354 -0.7771 -0.5326
vn 0.2728 -0.5419 -0.7950
vn 0.3353 -0.7771 -0.5326
vn 0.2717 -0.5238 -0.8074
vn -0.0511 0.2561 -0.9653
vn -0.0593 0.2653 -0.9623
vn -0.3026 0.6167 -0.7267
vn -0.2955 0.6181 -0.7285
vn -0.3130 0.3684 -0.8754
vn -0.3046 0.3599 -0.8819
vn 0.0119 0.2804 -0.9598
vn 0.3040 0.3436 -0.8886
vn 0.3040 0.3436 -0.8885
vn 0.3023 0.6082 -0.7339
vn 0.3025 0.6166 -0.7268
vn 0.0276 0.2730 -0.9616
vn 0.0354 0.2803 -0.9593
vn -0.2576 -0.4557 -0.8520
vn -0.2657 -0.6066 -0.7493
vn -0.2656 -0.8124 -0.5191
vn -0.2657 -0.8124 -0.5191
vn 0.0036 0.0513 -0.9987
vn -0.4075 0.1147 -0.9060
vn -0.4079 0.1069 -0.9067
vn -0.3212 0.1150 -0.9400
vn -0.3277 0.1225 -0.9368
vn -0.0674 0.0674 -0.9954
vn -0.0512 0.0513 -0.9974
vn -0.0039 0.0905 -0.9959
vn -0.0512 0.0512 -0.9974
vn -0.0040 0.0905 -0.9959
vn -0.0275 0.0434 -0.9987
vn -0.0515 0.0833 -0.9952
vn -0.0276 0.0434 -0.9987
vn -0.0277 0.0434 -0.9987
vn -0.1066 0.0672 -0.9920
vn -0.0434 0.0512 -0.9977
vn -0.1067 0.0672 -0.9920
vn -0.0675 0.0516 -0.9964
vn -0.1301 0.0591 -0.9897
vn -0.1544 0.0673 -0.9857
vn -0.0833 0.0515 -0.9952
vn -0.1852 0.0511 -0.9814
vn -0.1853 0.0434 -0.9817
vn -0.0911 0.0594 -0.9941
vn -0.1701 0.0277 -0.9850
vn -0.0913 0.0593 -0.9941
vn -0.1701 0.0198 -0.9852
vn -0.0989 0.0593 -0.9933
vn -0.0989 0.0594 -0.9933
vn -0.1304 0.0119 -0.9914
vn -0.1069 0.0356 -0.9936
vn -0.1303 0.0197 -0.9913
vn 0.0043 0.0513 -0.9987
vn 0.4141 0.1144 -0.9030
vn 0.4145 0.1065 -0.9038
vn 0.3192 0.1064 -0.9417
vn 0.3348 0.1222 -0.9343
vn 0.0753 0.0674 -0.9949
vn 0.0118 0.0905 -0.9958
vn 0.0434 0.0513 -0.9977
vn 0.0118 0.0904 -0.9958
vn 0.0594 0.0832 -0.9948
vn 0.0276 0.0513 -0.9983
vn 0.0595 0.0832 -0.9948
vn 0.1145 0.0671 -0.9912
vn 0.0354 0.0513 -0.9981
vn 0.1379 0.0591 -0.9887
vn 0.0748 0.0512 -0.9959
vn 0.1621 0.0672 -0.9845
vn 0.2018 0.0594 -0.9776
vn 0.0911 0.0515 -0.9945
vn 0.1854 0.0356 -0.9820
vn 0.1701 0.0119 -0.9854
vn 0.0989 0.0593 -0.9933
vn 0.1701 0.0118 -0.9854
vn 0.0989 0.0594 -0.9933
vn 0.1702 0.0119 -0.9853
vn 0.0910 0.0673 -0.9936
vn 0.1458 0.0197 -0.9891
vn 0.1381 0.0197 -0.9902
vn 0.0911 0.0594 -0.9941
vn 0.3747 0.0276 -0.9267
vn 0.6990 0.0355 -0.7142
vn 0.6990 0.0334 -0.7144
vn 0.7949 0.0039 0.6068
vn 0.7948 0.0039 0.6069
vn 0.4108 -0.0198 0.9115
vn 0.4108 -0.0196 0.9115
vn -0.1611 -0.0432 0.9860
vn -0.1609 -0.0438 0.9860
vn -0.3679 0.0278 -0.9294
vn -0.3677 0.0276 -0.9295
vn -0.6910 0.0355 -0.7220
vn -0.6949 0.0357 -0.7182
vn -0.7919 0.0042 0.6106
vn -0.7851 0.0040 0.6194
vn -0.4043 -0.0196 0.9144
vn 0.1686 -0.0432 0.9847
vn 0.1687 -0.0432 0.9847
vn 0.1687 -0.0431 0.9847
vt 0.250977 0.363281
vt 0.249634 0.367188
vt 0.253174 0.363770
vt 0.253174 0.368652
vt 0.329590 0.380859
vt 0.332764 0.376953
vt 0.328369 0.376953
vt 0.333496 0.379395
vt 0.220947 0.342773
vt 0.219971 0.347656
vt 0.224243 0.342285
vt 0.227783 0.347656
vt 0.253174 0.011230
vt 0.256592 0.012207
vt 0.252441 0.006836
vt 0.260010 0.006836
vt 0.076721 0.708252
vt 0.073181 0.707520
vt 0.077271 0.710693
vt 0.073181 0.713379
vt 0.076782 0.708252
vt 0.390625 0.102051
vt 0.386230 0.099121
vt 0.386230 0.102051
vt 0.390625 0.099121
vt 0.393555 0.102051
vt 0.393799 0.099121
vt 0.399658 0.102539
vt 0.399658 0.099121
vt 0.604492 0.289551
vt 0.596191 0.290039
vt 0.604980 0.306641
vt 0.613770 0.307129
vt 0.658691 0.290039
vt 0.661133 0.311523
vt 0.659668 0.291992
vt 0.661621 0.291992
vt 0.660645 0.290039
vt 0.662598 0.290039
vt 0.323486 0.124023
vt 0.313965 0.122070
vt 0.313965 0.124512
vt 0.323486 0.122070
vt 0.334229 0.123535
vt 0.334473 0.122070
vt 0.352539 0.123535
vt 0.352539 0.122070
vt 0.370361 0.123535
vt 0.370361 0.122070
vt 0.399658 0.125488
vt 0.401855 0.122070
vt 0.366699 0.103516
vt 0.367188 0.098633
vt 0.368896 0.101562
vt 0.357178 0.100098
vt 0.356689 0.103516
vt 0.345947 0.100586
vt 0.345703 0.103516
vt 0.328369 0.103516
vt 0.327637 0.100098
vt 0.314697 0.103516
vt 0.310059 0.096680
vt 0.282959 0.103516
vt 0.278320 0.094727
vt 0.432373 0.486816
vt 0.439941 0.479492
vt 0.438232 0.483887
vt 0.426025 0.479492
vt 0.425049 0.482422
vt 0.421875 0.481934
vt 0.421875 0.479492
vt 0.417480 0.481445
vt 0.417480 0.479492
vt 0.413330 0.479492
vt 0.413330 0.481934
vt 0.409180 0.479492
vt 0.410156 0.482422
vt 0.402832 0.486816
vt 0.395264 0.479492
vt 0.396729 0.483398
vt 0.544434 0.700684
vt 0.551270 0.693115
vt 0.549805 0.697510
vt 0.537109 0.693115
vt 0.536621 0.695801
vt 0.534180 0.695312
vt 0.533691 0.693115
vt 0.530762 0.695068
vt 0.530762 0.693115
vt 0.527832 0.693115
vt 0.527344 0.695312
vt 0.523926 0.693115
vt 0.524902 0.696045
vt 0.517090 0.700684
vt 0.510254 0.693115
vt 0.511719 0.697266
vt 0.349609 0.344727
vt 0.349609 0.349609
vt 0.354004 0.344727
vt 0.354004 0.349121
vt 0.349609 0.354980
vt 0.354004 0.354492
vt 0.354004 0.358887
vt 0.349609 0.359375
vt 0.316162 0.330078
vt 0.320068 0.332520
vt 0.315918 0.332520
vt 0.320312 0.330078
vt 0.323730 0.332520
vt 0.323975 0.330078
vt 0.328125 0.332520
vt 0.328369 0.330078
vt 0.337402 0.332520
vt 0.337646 0.330078
vt 0.342529 0.332520
vt 0.342773 0.330078
vt 0.347656 0.332520
vt 0.347656 0.330078
vt 0.359863 0.332520
vt 0.359863 0.330078
vt 0.371582 0.332520
vt 0.371826 0.330078
vt 0.378418 0.332520
vt 0.378418 0.330078
vt 0.382324 0.332520
vt 0.382324 0.330078
vt 0.386475 0.332520
vt 0.386475 0.330078
vt 0.392334 0.332520
vt 0.392822 0.330078
vt 0.410156 0.330078
vt 0.410156 0.332520
vt 0.302490 0.302246
vt 0.306641 0.302246
vt 0.302490 0.304199
vt 0.306641 0.304199
vt 0.311035 0.302246
vt 0.311279 0.304199
vt 0.313232 0.304199
vt 0.313477 0.302246
vt 0.318115 0.304199
vt 0.318115 0.302246
vt 0.328857 0.302246
vt 0.328857 0.304199
vt 0.342529 0.304199
vt 0.342529 0.302246
vt 0.347656 0.302246
vt 0.348877 0.304199
vt 0.274170 0.140625
vt 0.282715 0.143066
vt 0.274170 0.143066
vt 0.282715 0.140625
vt 0.287598 0.143066
vt 0.287842 0.140625
vt 0.290527 0.140625
vt 0.290527 0.143066
vt 0.293457 0.140625
vt 0.293213 0.143066
vt 0.298096 0.143066
vt 0.298096 0.140625
vt 0.307861 0.140625
vt 0.307861 0.143066
vt 0.317139 0.140625
vt 0.317383 0.143066
vt 0.320801 0.143066
vt 0.320801 0.140625
vt 0.324707 0.143066
vt 0.324707 0.140625
vt 0.331787 0.143066
vt 0.332031 0.140625
vt 0.336182 0.140625
vt 0.336182 0.143066
vt 0.340088 0.140625
vt 0.339844 0.143066
vt 0.343994 0.143066
vt 0.343994 0.140625
vt 0.354492 0.143066
vt 0.354248 0.140625
vt 0.365967 0.140625
vt 0.365967 0.143066
vt 0.370117 0.140625
vt 0.370117 0.143066
vt 0.371826 0.143066
vt 0.371826 0.140625
vt 0.550293 0.352051
vt 0.562988 0.350586
vt 0.550293 0.362305
vt 0.566406 0.362305
vt 0.572266 0.343262
vt 0.582520 0.362305
vt 0.582520 0.347168
vt 0.582031 0.331055
vt 0.591309 0.358398
vt 0.574707 0.329590
vt 0.588867 0.367188
vt 0.587402 0.306152
vt 0.605469 0.363281
vt 0.581543 0.301270
vt 0.604492 0.372559
vt 0.592285 0.291016
vt 0.643555 0.366211
vt 0.587402 0.286621
vt 0.643066 0.375977
vt 0.603027 0.284180
vt 0.685059 0.366211
vt 0.599609 0.278320
vt 0.692871 0.375977
vt 0.638184 0.274902
vt 0.700195 0.362793
vt 0.637207 0.281738
vt 0.711426 0.375000
vt 0.671875 0.284668
vt 0.703613 0.356934
vt 0.674316 0.278320
vt 0.710449 0.320801
vt 0.690430 0.289062
vt 0.703613 0.322754
vt 0.694824 0.282715
vt 0.702148 0.305664
vt 0.704590 0.289551
vt 0.708984 0.301758
vt 0.699219 0.294434
vt 0.492432 0.148438
vt 0.486328 0.154297
vt 0.490479 0.151855
vt 0.465332 0.147461
vt 0.467529 0.154297
vt 0.400879 0.111328
vt 0.398682 0.109863
vt 0.399170 0.114746
vt 0.388916 0.112793
vt 0.388184 0.109863
vt 0.377686 0.112305
vt 0.377441 0.109863
vt 0.360107 0.109863
vt 0.359375 0.113281
vt 0.346436 0.109863
vt 0.341797 0.116699
vt 0.317627 0.109863
vt 0.312500 0.118164
vt 0.291016 0.112793
vt 0.291016 0.109863
vt 0.278809 0.121582
vt 0.283447 0.112793
vt 0.280273 0.109863
vt 0.283447 0.109863
vt 0.279785 0.111328
vt 0.278564 0.111328
vt 0.279785 0.109863
vt 0.278564 0.109863
vt 0.495605 0.134277
vt 0.493652 0.133789
vt 0.491943 0.143066
vt 0.489990 0.143066
vt 0.493164 0.132812
vt 0.488770 0.144531
vt 0.487549 0.132812
vt 0.486328 0.125977
vt 0.480957 0.124512
vt 0.474854 0.133301
vt 0.439941 0.144043
vt 0.429443 0.133301
vt 0.433838 0.139648
vt 0.379395 0.136719
vt 0.379150 0.133301
vt 0.355957 0.135742
vt 0.355713 0.133301
vt 0.325439 0.135742
vt 0.325195 0.133301
vt 0.306641 0.136230
vt 0.305908 0.133301
vt 0.288574 0.137207
vt 0.288086 0.133301
vt 0.283447 0.137695
vt 0.283447 0.133301
vt 0.277100 0.133301
vt 0.276855 0.137695
vt 0.234253 0.439453
vt 0.248169 0.439453
vt 0.234253 0.440918
vt 0.248291 0.440918
vt 0.251953 0.439453
vt 0.251953 0.440918
vt 0.255615 0.439453
vt 0.255615 0.440918
vt 0.259277 0.440918
vt 0.259521 0.439453
vt 0.263184 0.440918
vt 0.263184 0.439453
vt 0.277100 0.440918
vt 0.277100 0.439453
vt 0.288086 0.438965
vt 0.292969 0.440430
vt 0.288330 0.440918
vt 0.292969 0.438965
vt 0.300049 0.439941
vt 0.300049 0.438965
vt 0.308838 0.438965
vt 0.308838 0.439941
vt 0.312012 0.440430
vt 0.312256 0.438965
vt 0.315918 0.440918
vt 0.315918 0.438965
vt 0.319336 0.438965
vt 0.319580 0.440430
vt 0.322754 0.438965
vt 0.322754 0.439941
vt 0.331543 0.439941
vt 0.331543 0.438965
vt 0.338623 0.438965
vt 0.339111 0.440430
vt 0.343262 0.438965
vt 0.343262 0.440918
vt 0.637207 0.311523
vt 0.637207 0.315918
vt 0.633789 0.311523
vt 0.633301 0.315430
vt 0.631348 0.318848
vt 0.637695 0.321289
vt 0.632324 0.322754
vt 0.627441 0.322754
vt 0.635742 0.325195
vt 0.626465 0.319824
vt 0.638672 0.323242
vt 0.619629 0.324707
vt 0.640625 0.328613
vt 0.617676 0.322266
vt 0.637207 0.329102
vt 0.615723 0.326172
vt 0.638184 0.340820
vt 0.613281 0.324219
vt 0.641602 0.340820
vt 0.613281 0.329590
vt 0.638184 0.354004
vt 0.610352 0.328125
vt 0.642090 0.356445
vt 0.609375 0.340332
vt 0.637695 0.358887
vt 0.612793 0.340332
vt 0.642090 0.363770
vt 0.613770 0.350586
vt 0.635742 0.360352
vt 0.610840 0.352051
vt 0.624512 0.363281
vt 0.614746 0.356445
vt 0.625000 0.360352
vt 0.612305 0.358398
vt 0.619629 0.359863
vt 0.614258 0.361328
vt 0.618164 0.362793
vt 0.616699 0.358887
vt 0.641602 0.363770
vt 0.479980 0.101074
vt 0.479980 0.106934
vt 0.483154 0.101074
vt 0.483154 0.106934
vt 0.483154 0.109863
vt 0.479980 0.109863
vt 0.479980 0.114258
vt 0.483154 0.114258
vt 0.644043 0.361328
vt 0.688965 0.360840
vt 0.644531 0.328125
vt 0.689941 0.327148
vt 0.694336 0.330566
vt 0.695312 0.357422
s 1
usemtl T_Rashid_v5_UpperAdd01_C_PCUI1.003
f 3/1/1 1/2/2 2/3/2
f 4/4/3 2/3/2 1/2/2
f 7/5/4 5/6/5 6/7/6
f 8/8/7 5/6/5 7/5/4
f 11/1/8 9/3/8 10/2/8
f 12/4/8 10/2/8 9/3/8
f 15/6/4 13/8/5 14/5/9
f 16/7/6 15/6/4 14/5/9
f 19/9/10 17/10/11 18/11/12
f 20/12/13 18/11/12 17/10/11
f 23/13/14 21/14/15 22/15/15
f 24/16/15 22/15/15 21/14/15
f 27/17/16 25/18/16 26/19/16
f 28/20/17 26/19/16 25/18/16
f 31/11/18 29/10/19 30/9/20
f 29/10/19 31/11/18 32/12/21
f 35/13/15 33/15/15 34/14/15
f 36/16/15 34/14/15 33/15/15
f 39/19/22 37/18/22 38/21/23
f 37/18/22 39/19/22 40/20/24
f 43/22/25 41/23/26 42/24/27
f 43/22/25 44/25/28 41/23/26
f 43/22/25 45/26/29 44/25/28
f 46/27/30 44/25/28 45/26/29
f 45/26/29 47/28/31 46/27/30
f 48/29/32 46/27/30 47/28/31
f 51/30/33 49/31/34 50/32/34
f 50/32/34 52/33/35 51/30/33
f 52/33/35 53/34/36 51/30/33
f 53/34/36 52/33/35 54/35/37
f 55/36/38 53/34/36 54/35/37
f 55/36/38 54/35/37 56/37/39
f 57/38/40 53/34/36 55/36/38
f 55/36/38 56/37/39 57/38/40
f 58/39/41 57/38/40 56/37/39
f 61/40/42 59/41/43 60/42/44
f 61/40/42 62/43/45 59/41/43
f 63/44/46 62/43/45 61/40/42
f 63/44/46 64/45/47 62/43/45
f 63/44/46 65/46/48 64/45/47
f 65/46/48 66/47/49 64/45/47
f 65/46/48 67/48/50 66/47/49
f 67/48/50 68/49/51 66/47/49
f 67/48/50 69/50/52 68/49/51
f 70/51/53 68/49/51 69/50/52
f 73/30/54 71/32/55 72/31/56
f 71/32/55 73/30/54 74/33/57
f 74/33/57 73/30/54 75/34/58
f 75/34/58 76/35/59 74/33/57
f 76/35/59 75/34/58 77/36/60
f 77/36/60 75/34/58 78/38/61
f 79/37/62 76/35/59 77/36/60
f 77/36/60 78/38/61 79/37/62
f 80/39/63 79/37/62 78/38/61
f 83/52/64 81/53/65 82/54/66
f 81/53/65 83/52/64 84/55/67
f 85/56/68 84/55/67 83/52/64
f 84/55/67 85/56/68 86/57/69
f 87/58/69 86/57/69 85/56/68
f 87/58/69 88/59/70 86/57/69
f 88/59/70 89/60/71 86/57/69
f 88/59/70 90/61/72 89/60/71
f 91/62/73 89/60/71 90/61/72
f 91/62/73 90/61/72 92/63/74
f 92/63/74 93/64/74 91/62/73
f 96/65/75 94/66/76 95/67/77
f 94/66/76 96/65/75 97/68/78
f 98/69/78 97/68/78 96/65/75
f 98/69/78 99/70/79 97/68/78
f 97/68/78 99/70/79 100/71/80
f 99/70/79 101/72/81 100/71/80
f 102/73/81 100/71/80 101/72/81
f 101/72/81 103/74/82 102/73/81
f 104/75/83 103/74/82 101/72/81
f 103/74/82 104/75/83 105/76/84
f 105/76/84 104/75/83 106/77/85
f 106/77/85 107/78/86 105/76/84
f 108/79/86 105/76/84 107/78/86
f 109/80/87 108/79/86 107/78/86
f 112/81/88 110/82/88 111/83/89
f 110/82/88 112/81/88 113/84/90
f 114/85/91 113/84/90 112/81/88
f 114/85/91 115/86/92 113/84/90
f 113/84/90 115/86/92 116/87/93
f 115/86/92 117/88/94 116/87/93
f 118/89/94 116/87/93 117/88/94
f 118/89/94 117/88/94 119/90/95
f 120/91/96 119/90/95 117/88/94
f 119/90/95 120/91/96 121/92/97
f 121/92/97 120/91/96 122/93/98
f 122/93/98 123/94/99 121/92/97
f 124/95/99 121/92/97 123/94/99
f 125/96/100 124/95/99 123/94/99
f 128/97/101 126/98/102 127/99/103
f 129/100/104 127/99/103 126/98/102
f 126/98/102 130/101/105 129/100/104
f 131/102/106 129/100/104 130/101/105
f 130/101/105 132/103/107 131/102/106
f 130/101/105 133/104/107 132/103/107
f 136/97/108 134/99/109 135/98/110
f 137/100/111 135/98/110 134/99/109
f 135/98/110 137/100/111 138/101/112
f 139/102/113 138/101/112 137/100/111
f 139/102/113 140/103/114 138/101/112
f 140/103/114 141/104/114 138/101/112
f 144/105/115 142/106/116 143/107/117
f 145/108/118 142/106/116 144/105/115
f 142/106/116 145/108/118 146/109/119
f 147/110/120 146/109/119 145/108/118
f 148/111/121 146/109/119 147/110/120
f 149/112/122 148/111/121 147/110/120
f 148/111/121 149/112/122 150/113/123
f 151/114/124 150/113/123 149/112/122
f 150/113/123 151/114/124 152/115/125
f 153/116/126 152/115/125 151/114/124
f 153/116/126 154/117/127 152/115/125
f 155/118/128 154/117/127 153/116/126
f 154/117/127 155/118/128 156/119/129
f 157/120/53 156/119/129 155/118/128
f 156/119/129 157/120/53 158/121/130
f 159/122/131 158/121/130 157/120/53
f 158/121/130 159/122/131 160/123/132
f 161/124/133 160/123/132 159/122/131
f 160/123/132 161/124/133 162/125/134
f 163/126/135 162/125/134 161/124/133
f 162/125/134 163/126/135 164/127/136
f 165/128/137 164/127/136 163/126/135
f 164/127/136 165/128/137 166/129/138
f 167/130/139 166/129/138 165/128/137
f 167/130/139 168/131/140 166/129/138
f 168/131/140 169/132/141 166/129/138
f 172/133/142 170/134/143 171/135/142
f 173/136/144 171/135/142 170/134/143
f 170/134/143 174/137/145 173/136/144
f 173/136/144 174/137/145 175/138/146
f 175/138/146 174/137/145 176/139/147
f 177/140/148 176/139/147 174/137/145
f 176/139/147 177/140/148 178/141/149
f 179/142/149 178/141/149 177/140/148
f 178/141/149 179/142/149 180/143/150
f 180/143/150 181/144/150 178/141/149
f 181/144/150 180/143/150 182/145/151
f 183/146/152 182/145/151 180/143/150
f 183/146/152 184/147/153 182/145/151
f 185/148/153 182/145/151 184/147/153
f 188/149/154 186/150/155 187/151/156
f 189/152/155 186/150/155 188/149/154
f 186/150/155 189/152/155 190/153/157
f 191/154/158 190/153/157 189/152/155
f 192/155/159 190/153/157 191/154/158
f 192/155/159 193/156/160 190/153/157
f 192/155/159 194/157/161 193/156/160
f 195/158/162 193/156/160 194/157/161
f 195/158/162 194/157/161 196/159/163
f 197/160/164 196/159/163 194/157/161
f 197/160/164 198/161/165 196/159/163
f 199/162/166 196/159/163 198/161/165
f 198/161/165 200/163/167 199/162/166
f 201/164/168 199/162/166 200/163/167
f 200/163/167 202/165/169 201/164/168
f 202/165/169 200/163/167 203/166/170
f 202/165/169 203/166/170 204/167/171
f 205/168/172 204/167/171 203/166/170
f 204/167/171 205/168/172 206/169/173
f 207/170/174 206/169/173 205/168/172
f 207/170/174 208/171/175 206/169/173
f 209/172/176 206/169/173 208/171/175
f 208/171/175 210/173/177 209/172/176
f 211/174/178 209/172/176 210/173/177
f 211/174/178 210/173/177 212/175/179
f 213/176/180 212/175/179 210/173/177
f 212/175/179 213/176/180 214/177/181
f 215/178/181 214/177/181 213/176/180
f 215/178/181 216/179/182 214/177/181
f 217/180/182 214/177/181 216/179/182
f 216/179/182 218/181/183 217/180/182
f 219/182/184 217/180/182 218/181/183
f 219/182/184 218/181/183 220/183/185
f 221/184/186 220/183/185 218/181/183
f 224/185/187 222/186/188 223/187/187
f 225/188/189 223/187/187 222/186/188
f 222/186/188 226/189/190 225/188/189
f 227/190/191 225/188/189 226/189/190
f 227/190/191 226/189/190 228/191/192
f 229/192/193 228/191/192 226/189/190
f 228/191/192 230/193/194 227/190/191
f 229/192/193 226/189/190 231/194/193
f 230/193/194 232/195/195 227/190/191
f 229/192/193 231/194/193 233/196/196
f 234/197/197 232/195/195 230/193/194
f 233/196/196 231/194/193 235/198/196
f 234/197/197 236/199/197 232/195/195
f 233/196/196 235/198/196 237/200/198
f 234/197/197 238/201/199 236/199/197
f 237/200/198 235/198/196 239/202/200
f 240/203/201 236/199/197 238/201/199
f 239/202/200 241/204/202 237/200/198
f 238/201/199 242/205/203 240/203/201
f 241/204/202 239/202/200 243/206/204
f 244/207/205 240/203/201 242/205/203
f 241/204/202 243/206/204 245/208/206
f 246/209/207 244/207/205 242/205/203
f 245/208/206 247/210/206 241/204/202
f 246/209/207 248/211/207 244/207/205
f 247/210/206 245/208/206 249/212/208
f 246/209/207 250/213/209 248/211/207
f 251/214/208 249/212/208 245/208/206
f 250/213/209 252/215/210 248/211/207
f 249/212/208 251/214/208 253/216/201
f 254/217/211 252/215/210 250/213/209
f 255/218/212 253/216/201 251/214/208
f 254/217/211 256/219/213 252/215/210
f 255/218/212 257/220/211 253/216/201
f 258/221/214 252/215/210 256/219/213
f 259/222/215 253/216/201 257/220/211
f 256/219/213 259/222/215 258/221/214
f 257/220/211 258/221/214 259/222/215
f 262/105/216 260/107/216 261/106/217
f 261/106/217 263/108/218 262/105/216
f 261/106/217 264/109/219 263/108/218
f 265/110/220 263/108/218 264/109/219
f 265/110/220 264/109/219 266/111/221
f 265/110/220 266/111/221 267/112/222
f 266/111/221 268/113/223 267/112/222
f 269/114/224 267/112/222 268/113/223
f 268/113/223 270/115/225 269/114/224
f 271/116/226 269/114/224 270/115/225
f 271/116/226 270/115/225 272/117/227
f 272/117/227 273/118/228 271/116/226
f 272/117/227 274/119/229 273/118/228
f 275/120/230 273/118/228 274/119/229
f 274/119/229 276/121/231 275/120/230
f 277/122/232 275/120/230 276/121/231
f 276/121/231 278/123/233 277/122/232
f 279/124/234 277/122/232 278/123/233
f 278/123/233 280/125/235 279/124/234
f 281/126/236 279/124/234 280/125/235
f 280/125/235 282/127/237 281/126/236
f 283/128/237 281/126/236 282/127/237
f 282/127/237 284/129/238 283/128/237
f 285/130/239 283/128/237 284/129/238
f 284/129/238 286/131/240 285/130/239
f 284/129/238 287/132/241 286/131/240
f 290/133/242 288/135/142 289/134/243
f 291/136/244 289/134/243 288/135/142
f 289/134/243 291/136/244 292/137/245
f 293/138/246 292/137/245 291/136/244
f 294/139/247 292/137/245 293/138/246
f 294/139/247 295/140/248 292/137/245
f 295/140/248 294/139/247 296/141/249
f 296/141/249 297/142/249 295/140/248
f 296/141/249 298/143/250 297/142/249
f 299/144/250 298/143/250 296/141/249
f 298/143/250 299/144/250 300/145/251
f 300/145/251 301/146/251 298/143/250
f 301/146/251 300/145/251 302/147/252
f 303/148/252 302/147/252 300/145/251
f 306/151/253 304/150/254 305/149/255
f 307/152/256 305/149/255 304/150/254
f 304/150/254 308/153/257 307/152/256
f 309/154/258 307/152/256 308/153/257
f 309/154/258 308/153/257 310/155/259
f 308/153/257 311/156/259 310/155/259
f 310/155/259 311/156/259 312/157/260
f 312/157/260 311/156/259 313/158/261
f 313/158/261 314/159/262 312/157/260
f 315/160/262 312/157/260 314/159/262
f 315/160/262 314/159/262 316/161/263
f 317/162/264 316/161/263 314/159/262
f 316/161/263 317/162/264 318/163/265
f 318/163/265 317/162/264 319/164/266
f 319/164/266 320/165/267 318/163/265
f 321/166/268 318/163/265 320/165/267
f 321/166/268 320/165/267 322/167/269
f 321/166/268 322/167/269 323/168/270
f 322/167/269 324/169/271 323/168/270
f 325/170/272 323/168/270 324/169/271
f 325/170/272 324/169/271 326/171/273
f 327/172/273 326/171/273 324/169/271
f 326/171/273 327/172/273 328/173/274
f 328/173/274 327/172/273 329/174/275
f 329/174/275 330/175/276 328/173/274
f 331/176/277 328/173/274 330/175/276
f 330/175/276 332/177/278 331/176/277
f 333/178/279 331/176/277 332/177/278
f 333/178/279 332/177/278 334/179/280
f 335/180/281 334/179/280 332/177/278
f 335/180/281 336/182/282 334/179/280
f 336/182/282 337/181/283 334/179/280
f 336/182/282 338/183/284 337/181/283
f 339/184/285 337/181/283 338/183/284
f 342/185/286 340/187/286 341/186/287
f 341/186/287 340/187/286 343/188/288
f 341/186/287 343/188/288 344/189/289
f 345/190/290 344/189/289 343/188/288
f 346/191/291 344/189/289 345/190/290
f 344/189/289 346/191/291 347/192/292
f 345/190/290 348/193/293 346/191/291
f 349/194/294 344/189/289 347/192/292
f 345/190/290 350/195/295 348/193/293
f 347/192/292 351/196/296 349/194/294
f 348/193/293 350/195/295 352/197/297
f 353/198/296 349/194/294 351/196/296
f 352/197/297 350/195/295 354/199/297
f 353/198/296 351/196/296 355/200/298
f 354/199/297 356/203/299 352/197/297
f 355/200/298 357/202/300 353/198/296
f 358/201/299 352/197/297 356/203/299
f 355/200/298 359/204/301 357/202/300
f 358/201/299 356/203/299 360/205/302
f 359/204/301 361/206/303 357/202/300
f 362/207/304 360/205/302 356/203/299
f 361/206/303 359/204/301 363/208/305
f 360/205/302 362/207/304 364/209/306
f 365/210/307 363/208/305 359/204/301
f 362/207/304 366/211/308 364/209/306
f 365/210/307 367/212/309 363/208/305
f 366/211/308 368/213/310 364/209/306
f 369/214/311 363/208/305 367/212/309
f 366/211/308 370/215/312 368/213/310
f 367/212/309 371/216/307 369/214/311
f 368/213/310 370/215/312 372/217/313
f 373/218/314 369/214/311 371/216/307
f 372/217/313 370/215/312 374/219/315
f 373/218/314 371/216/307 375/220/316
f 376/221/317 374/219/315 370/215/312
f 377/222/318 375/220/316 371/216/307
f 374/219/315 376/221/317 377/222/318
f 375/220/316 377/222/318 376/221/317
f 380/63/319 378/62/320 379/64/319
f 378/62/320 380/63/319 381/61/321
f 378/62/320 381/61/321 382/60/322
f 383/59/323 382/60/322 381/61/321
f 383/59/323 384/57/324 382/60/322
f 384/57/324 383/59/323 385/58/324
f 385/58/324 386/56/325 384/57/324
f 387/55/326 384/57/324 386/56/325
f 386/56/325 388/52/327 387/55/326
f 389/53/327 387/55/326 388/52/327
f 390/54/328 389/53/327 388/52/327
f 393/223/329 391/224/330 392/225/331
f 391/224/330 393/223/329 394/226/329
f 395/227/329 391/224/330 394/226/329
f 398/228/332 396/229/333 397/230/333
f 397/230/333 396/229/333 399/231/334
f 400/232/334 399/231/334 396/229/333
f 399/231/334 400/232/334 401/233/335
f 402/234/335 401/233/335 400/232/334
f 402/234/335 403/235/336 401/233/335
f 403/235/336 404/236/337 401/233/335
f 403/235/336 405/237/338 404/236/337
f 405/237/338 406/238/339 404/236/337
f 406/238/339 405/237/338 407/239/340
f 407/239/340 408/240/341 406/238/339
f 409/241/342 408/240/341 407/239/340
f 409/241/342 407/239/340 410/242/343
f 411/243/344 408/240/341 409/241/342
f 411/243/344 409/241/342 412/244/345
f 414/245/346 412/244/345 413/246/347
f 411/243/344 412/244/345 415/247/348
f 415/247/348 412/244/345 414/245/346
f 411/243/344 415/247/348 416/248/349
f 415/247/348 414/245/346 417/249/350
f 416/248/349 415/247/348 418/250/351
f 417/249/350 418/250/351 415/247/348
f 421/251/15 419/252/352 420/253/353
f 422/254/354 420/253/353 419/252/352
f 419/252/352 423/255/355 422/254/354
f 422/254/354 423/255/355 424/256/356
f 424/256/356 423/255/355 425/257/356
f 427/258/357 426/259/358 425/257/356
f 428/260/359 425/257/356 426/259/358
f 425/257/356 428/260/359 424/256/356
f 428/260/359 429/261/360 424/256/356
f 430/262/361 429/261/360 428/260/359
f 429/261/360 430/262/361 431/263/362
f 431/263/362 430/262/361 432/264/363
f 433/265/363 432/264/363 430/262/361
f 432/264/363 433/265/363 434/266/364
f 435/267/365 434/266/364 433/265/363
f 435/267/365 436/268/366 434/266/364
f 436/268/366 435/267/365 437/269/367
f 437/269/367 438/270/368 436/268/366
f 438/270/368 437/269/367 439/271/369
f 439/271/369 440/272/370 438/270/368
f 440/272/370 439/271/369 441/273/371
f 440/272/370 441/273/371 442/274/372
f 443/275/373 442/274/372 441/273/371
f 443/275/373 444/276/374 442/274/372
f 444/276/374 445/277/375 442/274/372
f 448/29/376 446/28/377 447/27/378
f 449/26/379 447/27/378 446/28/377
f 449/26/379 450/25/380 447/27/378
f 449/26/379 451/22/381 450/25/380
f 452/23/382 450/25/380 451/22/381
f 453/24/383 452/23/382 451/22/381
f 456/51/384 454/50/384 455/49/385
f 457/48/386 455/49/385 454/50/384
f 455/49/385 457/48/386 458/47/387
f 459/46/388 458/47/387 457/48/386
f 458/47/387 459/46/388 460/45/389
f 461/44/390 460/45/389 459/46/388
f 460/45/389 461/44/390 462/43/391
f 463/40/392 462/43/391 461/44/390
f 462/43/391 463/40/392 464/41/393
f 465/42/394 464/41/393 463/40/392
f 468/225/395 466/224/396 467/223/397
f 466/224/396 469/226/396 467/223/397
f 469/226/396 466/224/396 470/227/396
f 473/230/398 471/229/399 472/228/400
f 473/230/398 474/231/401 471/229/399
f 475/232/401 471/229/399 474/231/401
f 474/231/401 476/233/402 475/232/401
f 477/234/402 475/232/401 476/233/402
f 476/233/402 478/235/403 477/234/402
f 478/235/403 476/233/402 479/236/404
f 478/235/403 479/236/404 480/237/405
f 481/238/406 480/237/405 479/236/404
f 481/238/406 482/239/407 480/237/405
f 482/239/407 481/238/406 483/240/408
f 482/239/407 483/240/408 484/241/409
f 485/242/410 482/239/407 484/241/409
f 484/241/409 483/240/408 486/243/411
f 487/244/412 484/241/409 486/243/411
f 489/246/413 487/244/412 488/245/414
f 490/247/415 487/244/412 486/243/411
f 488/245/414 487/244/412 490/247/415
f 491/248/416 490/247/415 486/243/411
f 492/249/417 488/245/414 490/247/415
f 491/248/416 493/250/418 490/247/415
f 492/249/417 490/247/415 493/250/418
f 496/251/15 494/253/14 495/252/419
f 497/254/420 495/252/419 494/253/14
f 495/252/419 497/254/420 498/255/421
f 497/254/420 499/256/422 498/255/421
f 500/257/423 498/255/421 499/256/422
f 502/258/424 500/257/423 501/259/425
f 503/260/426 501/259/425 500/257/423
f 500/257/423 499/256/422 503/260/426
f 504/261/427 503/260/426 499/256/422
f 503/260/426 504/261/427 505/262/361
f 506/263/428 505/262/361 504/261/427
f 506/263/428 507/264/429 505/262/361
f 508/265/430 505/262/361 507/264/429
f 507/264/429 509/266/431 508/265/430
f 510/267/432 508/265/430 509/266/431
f 510/267/432 509/266/431 511/268/433
f 512/269/434 510/267/432 511/268/433
f 512/269/434 511/268/433 513/270/435
f 514/271/436 512/269/434 513/270/435
f 514/271/436 513/270/435 515/272/437
f 516/273/438 514/271/436 515/272/437
f 515/272/437 517/274/439 516/273/438
f 518/275/440 516/273/438 517/274/439
f 517/274/439 519/276/441 518/275/440
f 517/274/439 520/277/442 519/276/441
f 523/278/443 521/279/444 522/280/443
f 524/281/445 522/280/443 521/279/444
f 521/279/444 525/282/446 524/281/445
f 526/283/447 524/281/445 525/282/446
f 525/282/446 527/284/448 526/283/447
f 528/285/449 526/283/447 527/284/448
f 528/285/449 527/284/448 529/286/450
f 530/287/451 529/286/450 527/284/448
f 529/286/450 530/287/451 531/288/452
f 532/289/453 531/288/452 530/287/451
f 532/289/453 533/290/454 531/288/452
f 534/291/454 533/290/454 532/289/453
f 537/292/455 535/293/456 536/294/457
f 535/293/456 537/292/455 538/295/458
f 538/295/458 539/296/459 535/293/456
f 540/297/460 539/296/459 538/295/458
f 540/297/460 541/298/461 539/296/459
f 542/299/462 539/296/459 541/298/461
f 542/299/462 541/298/461 543/300/463
f 544/301/464 543/300/463 541/298/461
f 543/300/463 544/301/464 545/302/465
f 546/303/465 545/302/465 544/301/464
f 545/302/465 546/303/465 547/304/466
f 545/302/465 547/304/466 548/305/467
f 547/304/466 549/306/468 548/305/467
f 550/307/469 548/305/467 549/306/468
f 550/307/469 549/306/468 551/308/470
f 552/309/471 551/308/470 549/306/468
f 552/309/471 553/310/472 551/308/470
f 553/310/472 554/311/473 551/308/470
f 553/310/472 555/312/474 554/311/473
f 556/313/475 554/311/473 555/312/474
f 559/314/476 557/315/477 558/316/476
f 560/317/478 558/316/476 557/315/477
f 561/318/479 560/317/478 557/315/477
f 561/318/479 557/315/477 562/319/480
f 562/319/480 563/320/481 561/318/479
f 563/320/481 564/321/482 561/318/479
f 563/320/481 562/319/480 565/322/483
f 566/323/484 561/318/479 564/321/482
f 565/322/483 562/319/480 567/324/485
f 564/321/482 568/325/486 566/323/484
f 567/324/485 569/326/487 565/322/483
f 570/327/488 566/323/484 568/325/486
f 571/328/487 565/322/483 569/326/487
f 568/325/486 572/329/489 570/327/488
f 569/326/487 573/330/490 571/328/487
f 574/331/491 570/327/488 572/329/489
f 575/332/492 573/330/490 569/326/487
f 572/329/489 576/333/493 574/331/491
f 575/332/492 577/334/494 573/330/490
f 578/335/493 574/331/491 576/333/493
f 577/334/494 575/332/492 579/336/495
f 576/333/493 580/337/496 578/335/493
f 577/334/494 579/336/495 581/338/497
f 582/339/496 580/337/496 576/333/493
f 583/340/498 581/338/497 579/336/495
f 582/339/496 584/341/499 580/337/496
f 581/338/497 583/340/498 585/342/500
f 586/343/501 580/337/496 584/341/499
f 585/342/500 583/340/498 587/344/502
f 584/341/499 588/345/503 586/343/501
f 587/344/502 589/346/502 585/342/500
f 588/345/503 590/347/504 586/343/501
f 587/344/502 591/348/505 589/346/502
f 588/345/503 592/349/506 590/347/504
f 593/350/507 591/348/505 587/344/502
f 592/349/506 588/345/503 594/351/506
f 591/348/505 593/350/507 594/351/506
f 592/349/506 594/351/506 593/350/507
f 597/314/508 595/316/508 596/315/509
f 598/317/510 596/315/509 595/316/508
f 598/317/510 599/318/511 596/315/509
f 600/319/512 596/315/509 599/318/511
f 599/318/511 601/320/513 600/319/512
f 602/322/514 600/319/512 601/320/513
f 601/320/513 599/318/511 603/321/515
f 604/324/516 600/319/512 602/322/514
f 605/323/515 603/321/515 599/318/511
f 602/322/514 606/328/517 604/324/516
f 603/321/515 605/323/515 607/325/518
f 608/326/519 604/324/516 606/328/517
f 609/327/518 607/325/518 605/323/515
f 608/326/519 606/328/517 610/332/520
f 607/325/518 609/327/518 611/329/521
f 612/330/520 610/332/520 606/328/517
f 613/331/515 611/329/521 609/327/518
f 612/330/520 614/334/522 610/332/520
f 611/329/521 613/331/515 615/333/523
f 616/336/524 610/332/520 614/334/522
f 617/335/523 615/333/523 613/331/515
f 618/338/525 616/336/524 614/334/522
f 615/333/523 617/335/523 619/337/526
f 616/336/524 618/338/525 620/352/527
f 621/339/526 615/333/523 619/337/526
f 622/342/528 620/352/527 618/338/525
f 621/339/526 619/337/526 623/341/529
f 622/342/528 624/344/530 620/352/527
f 623/341/529 619/337/526 625/343/531
f 626/346/532 624/344/530 622/342/528
f 625/343/531 627/345/533 623/341/529
f 626/346/532 628/348/534 624/344/530
f 627/345/533 625/343/531 629/347/533
f 628/348/534 630/350/535 624/344/530
f 629/347/533 631/349/536 627/345/533
f 628/348/534 632/351/526 630/350/535
f 632/351/526 627/345/533 631/349/536
f 631/349/536 630/350/535 632/351/526
f 635/353/537 633/354/538 634/355/537
f 636/356/539 634/355/537 633/354/538
f 636/356/539 633/354/538 637/357/540
f 638/358/541 637/357/540 633/354/538
f 637/357/540 638/358/541 639/359/542
f 637/357/540 639/359/542 640/360/543
f 643/361/544 641/362/544 642/363/545
f 644/364/544 642/363/545 641/362/544
f 645/365/544 644/364/544 641/362/544
f 646/366/544 645/365/544 641/362/544
f 649/353/546 647/355/547 648/354/548
f 648/354/548 647/355/547 650/356/549
f 650/356/549 651/357/550 648/354/548
f 652/358/551 648/354/548 651/357/550
f 653/359/552 652/358/551 651/357/550
f 654/360/552 653/359/552 651/357/550
f 657/361/553 655/363/554 656/362/555
f 658/364/554 656/362/555 655/363/554
f 658/364/554 659/365/554 656/362/555
f 656/362/555 659/365/554 660/366/555
