# Blender 4.5.7 LTS
# www.blender.org
mtllib jingpian.mtl
o M_Rashid_v5_Body_3P_HD.002
v 0.015246 0.256845 0.073445
v 0.014826 0.231692 0.072390
v 0.012651 0.249190 0.073170
v 0.018248 0.225064 0.072029
v 0.037794 0.260101 0.072164
v 0.037585 0.221463 0.070465
v 0.055910 0.223086 0.068736
v 0.059403 0.259108 0.069696
v 0.063762 0.252334 0.068701
v 0.060801 0.227473 0.068614
v -0.056632 0.257699 0.069321
v -0.058098 0.228229 0.068614
v -0.061163 0.252238 0.068421
v -0.053138 0.223558 0.068736
v -0.034570 0.260013 0.072216
v -0.034430 0.221439 0.070501
v -0.015516 0.225031 0.072059
v -0.012474 0.256719 0.073445
v -0.012054 0.231692 0.072390
v -0.009879 0.249190 0.073170
v -0.058098 0.228229 0.069555
v -0.056632 0.257699 0.070262
v -0.061163 0.252238 0.069362
v -0.053138 0.223558 0.069677
v -0.034200 0.260052 0.073199
v -0.034116 0.221417 0.071472
v -0.016170 0.224588 0.072942
v -0.012474 0.256719 0.074386
v -0.012054 0.231692 0.073331
v -0.009879 0.249190 0.074111
v 0.014826 0.231692 0.073331
v 0.015246 0.256845 0.074386
v 0.012651 0.249190 0.074111
v 0.018248 0.225064 0.072970
v 0.037432 0.260118 0.073147
v 0.037279 0.221449 0.071435
v 0.055910 0.223086 0.069677
v 0.059403 0.259108 0.070637
v 0.063762 0.252334 0.069642
v 0.060801 0.227473 0.069555
vn -0.0198 0.0435 -0.9989
vn -0.0591 0.0434 -0.9973
vn -0.0198 0.0434 -0.9989
vn -0.0833 0.0436 -0.9956
vn -0.0990 0.0436 -0.9941
vn -0.1069 0.0356 -0.9936
vn 0.1069 0.0198 -0.9941
vn 0.1147 0.0435 -0.9924
vn 0.1146 0.0435 -0.9925
vn 0.0990 0.0436 -0.9941
vn 0.0670 0.0433 -0.9968
vn 0.0197 0.0434 -0.9989
vn 0.0196 0.0434 -0.9989
vn -0.0983 -0.0118 0.9951
vn -0.1060 -0.0353 0.9937
vn -0.0905 -0.0355 0.9953
vn -0.0905 -0.0354 0.9953
vn -0.0587 -0.0352 0.9977
vn -0.0118 -0.0353 0.9993
vn -0.0117 -0.0353 0.9993
vn 0.0274 -0.0352 0.9990
vn 0.0274 -0.0353 0.9990
vn 0.0665 -0.0352 0.9972
vn 0.0905 -0.0354 0.9953
vn 0.1060 -0.0353 0.9937
vn 0.1061 -0.0354 0.9937
vn 0.1138 -0.0275 0.9931
vt 0.269531 0.788696
vt 0.271973 0.795166
vt 0.271973 0.770752
vt 0.275635 0.764648
vt 0.292725 0.800415
vt 0.293701 0.762451
vt 0.314697 0.763550
vt 0.317871 0.798340
vt 0.322510 0.788696
vt 0.320557 0.767212
vt 0.222290 0.758179
vt 0.226929 0.767822
vt 0.224121 0.736816
vt 0.230103 0.733154
vt 0.251953 0.770020
vt 0.250977 0.731934
vt 0.269043 0.734863
vt 0.272705 0.764648
vt 0.272705 0.740479
vt 0.275391 0.758301
vt 0.268311 0.734375
s 1
usemtl MI_M_Rashid_v5_Glasses_UI1.003
f 3/1/1 1/2/2 2/3/3
f 4/4/2 2/3/3 1/2/2
f 1/2/2 5/5/4 4/4/2
f 6/6/4 4/4/2 5/5/4
f 7/7/5 6/6/4 5/5/4
f 8/8/5 7/7/5 5/5/4
f 8/8/5 9/9/6 7/7/5
f 10/10/6 7/7/5 9/9/6
f 13/11/7 11/12/8 12/13/7
f 14/14/9 12/13/7 11/12/8
f 11/12/8 15/15/10 14/14/9
f 16/16/10 14/14/9 15/15/10
f 17/17/11 16/16/10 15/15/10
f 18/18/11 17/17/11 15/15/10
f 17/17/11 18/18/11 19/19/12
f 20/20/13 19/19/12 18/18/11
f 23/11/14 21/13/14 22/12/15
f 22/12/15 21/13/14 24/14/15
f 22/12/15 24/14/15 25/15/16
f 26/16/17 25/15/16 24/14/15
f 26/16/17 27/21/18 25/15/16
f 28/18/18 25/15/16 27/21/18
f 27/21/18 29/19/19 28/18/18
f 30/20/20 28/18/18 29/19/19
f 33/1/21 31/3/22 32/2/23
f 34/4/23 32/2/23 31/3/22
f 34/4/23 35/5/24 32/2/23
f 36/6/24 35/5/24 34/4/23
f 36/6/24 37/7/25 35/5/24
f 38/8/26 35/5/24 37/7/25
f 39/9/27 38/8/26 37/7/25
f 40/10/27 39/9/27 37/7/25
