# Blender 4.5.7 LTS
# www.blender.org
mtllib yanqiu.mtl
o M_Rashid_v5_Body_3P_HD.003
v 0.025230 0.262371 0.036624
v 0.024447 0.256068 0.030046
v 0.020550 0.258368 0.036595
v 0.018397 0.252612 0.036212
v 0.026899 0.258066 0.030084
v 0.031350 0.263601 0.036156
v 0.023181 0.252636 0.029874
v 0.030294 0.258787 0.029733
v 0.023642 0.249554 0.029435
v 0.019262 0.246695 0.035502
v 0.033436 0.257433 0.029350
v 0.037265 0.261522 0.035462
v 0.025908 0.246778 0.028847
v 0.023131 0.241885 0.034612
v 0.035355 0.254996 0.028737
v 0.041347 0.256729 0.034515
v 0.028944 0.245692 0.028508
v 0.028877 0.239569 0.033857
v 0.035867 0.251541 0.028341
v 0.042395 0.250485 0.033825
v 0.032363 0.246306 0.028185
v 0.035133 0.240487 0.033338
v 0.040125 0.244534 0.033387
v 0.034798 0.248608 0.028222
v 0.029142 0.252373 0.027159
v -0.022720 0.258175 0.031188
v -0.023645 0.263790 0.038344
v -0.018958 0.259808 0.038010
v -0.016787 0.254119 0.037097
v -0.025176 0.260159 0.031376
v -0.029756 0.265062 0.037880
v -0.021444 0.254777 0.030699
v -0.028564 0.260913 0.031031
v -0.021891 0.251755 0.029946
v -0.017628 0.248303 0.035783
v -0.031695 0.259604 0.030452
v -0.035653 0.263064 0.036864
v -0.024140 0.249051 0.029038
v -0.021469 0.243607 0.034341
v -0.033597 0.257241 0.029561
v -0.039707 0.258390 0.035362
v -0.027166 0.248005 0.028532
v -0.027195 0.241378 0.033244
v -0.034095 0.253843 0.028811
v -0.040729 0.252246 0.034031
v -0.030579 0.248649 0.028204
v -0.033441 0.242345 0.032693
v -0.038440 0.246368 0.033047
v -0.033019 0.250936 0.028421
v -0.027349 0.254788 0.027853
v -0.027681 0.238559 0.038864
v -0.033441 0.242345 0.032693
v -0.027195 0.241378 0.033244
v -0.021469 0.243607 0.034341
v -0.034777 0.239610 0.038361
v -0.038440 0.246368 0.033047
v -0.021156 0.241116 0.040064
v -0.040474 0.244144 0.038762
v -0.016868 0.246443 0.041600
v -0.017628 0.248303 0.035783
v -0.028242 0.238288 0.043990
v -0.022100 0.240751 0.045080
v -0.015889 0.253095 0.043061
v -0.016787 0.254119 0.037097
v -0.018958 0.259808 0.038010
v -0.018183 0.245868 0.046707
v -0.018339 0.259466 0.044135
v -0.023645 0.263790 0.038344
v -0.017326 0.252028 0.047845
v -0.023688 0.263929 0.044517
v -0.029756 0.265062 0.037880
v -0.019509 0.258012 0.048843
v -0.030555 0.265405 0.044140
v -0.035653 0.263064 0.036864
v -0.024457 0.262274 0.049186
v -0.023040 0.254997 0.052127
v -0.026518 0.257811 0.052515
v -0.030945 0.263674 0.048902
v -0.037230 0.263168 0.042995
v -0.037280 0.261538 0.047942
v -0.041886 0.257842 0.041424
v -0.039707 0.258390 0.035362
v -0.030936 0.258561 0.052366
v -0.043093 0.250847 0.039875
v -0.040729 0.252246 0.034031
v -0.041732 0.256477 0.046601
v -0.042990 0.249816 0.045285
v -0.035160 0.257099 0.051829
v -0.038178 0.253733 0.051098
v -0.040650 0.243287 0.044212
v -0.030779 0.254492 0.054288
v -0.034967 0.239258 0.043634
v -0.037366 0.244987 0.049430
v -0.039105 0.249252 0.050377
v -0.033642 0.242274 0.048912
v -0.035479 0.249098 0.052886
v -0.035002 0.251696 0.053416
v -0.033264 0.253658 0.053917
v -0.031977 0.251526 0.054754
v -0.030627 0.251981 0.054946
v -0.032903 0.250486 0.054473
v -0.030364 0.249252 0.054886
v -0.029214 0.251735 0.054992
v -0.033151 0.249096 0.054174
v -0.034476 0.246635 0.052454
v -0.032623 0.247783 0.053959
v -0.032353 0.244986 0.052271
v -0.029175 0.241533 0.049098
v -0.031465 0.246892 0.053879
v -0.030039 0.246676 0.053938
v -0.029711 0.244584 0.052391
v -0.028699 0.247166 0.054114
v -0.027244 0.245476 0.052768
v -0.025010 0.243109 0.049833
v -0.027801 0.248231 0.054374
v -0.025595 0.247479 0.053323
v -0.022284 0.246604 0.050961
v -0.027571 0.249581 0.054642
v -0.025241 0.250007 0.053749
v -0.021640 0.250834 0.051534
v -0.028095 0.250874 0.054875
v -0.026171 0.252405 0.054130
v -0.028194 0.254032 0.054374
v 0.025230 0.262371 0.036624
v 0.032023 0.264569 0.042365
v 0.031350 0.263601 0.036156
v 0.037265 0.261522 0.035462
v 0.025150 0.263126 0.042751
v 0.020550 0.258368 0.036595
v 0.038719 0.262240 0.041582
v 0.019809 0.258637 0.042710
v 0.043405 0.256793 0.040644
v 0.041347 0.256729 0.034515
v 0.017379 0.252186 0.042229
v 0.018397 0.252612 0.036212
v 0.019262 0.246695 0.035502
v 0.020884 0.257662 0.047562
v 0.025825 0.261947 0.047576
v 0.018386 0.245423 0.041459
v 0.023131 0.241885 0.034612
v 0.032318 0.263323 0.047284
v 0.022703 0.239978 0.040548
v 0.027819 0.257842 0.051374
v 0.038671 0.261112 0.046668
v 0.032238 0.258581 0.051239
v 0.024348 0.254996 0.051200
v 0.043148 0.255951 0.045927
v 0.018721 0.251605 0.047123
v 0.029456 0.254270 0.053635
v 0.019599 0.245364 0.046624
v 0.022960 0.250793 0.050998
v 0.027438 0.252623 0.053514
v 0.023614 0.246528 0.050863
v 0.023546 0.240117 0.045593
v 0.026515 0.250197 0.053356
v 0.026361 0.242943 0.050144
v 0.029346 0.251178 0.054446
v 0.026878 0.247640 0.053191
v 0.028826 0.249867 0.054334
v 0.030463 0.252048 0.054499
v 0.029062 0.248498 0.054206
v 0.032043 0.254724 0.053555
v 0.031614 0.249569 0.054665
v 0.031877 0.252291 0.054457
v 0.036472 0.257080 0.050935
v 0.034534 0.253862 0.053318
v 0.033230 0.251821 0.054338
v 0.039504 0.253664 0.050604
v 0.036282 0.251863 0.053050
v 0.034161 0.250760 0.054181
v 0.040444 0.249135 0.050353
v 0.036768 0.249225 0.052792
v 0.044429 0.249195 0.045308
v 0.034415 0.249348 0.054028
v 0.038697 0.244819 0.049788
v 0.035774 0.246730 0.052588
v 0.033891 0.248019 0.053934
v 0.033654 0.245067 0.052529
v 0.032735 0.247122 0.053920
v 0.031308 0.246910 0.053972
v 0.029965 0.247413 0.054071
v 0.031010 0.244674 0.052636
v 0.028536 0.245594 0.052872
v 0.030539 0.241309 0.049653
v 0.035010 0.242036 0.049483
v 0.029709 0.237568 0.044877
v 0.036425 0.238525 0.044553
v 0.029250 0.237325 0.039740
v 0.028877 0.239569 0.033857
v 0.035133 0.240487 0.033338
v 0.036355 0.238334 0.039275
v 0.040125 0.244534 0.033387
v 0.042027 0.242912 0.039327
v 0.041901 0.242801 0.044734
v 0.044642 0.249680 0.039825
v 0.042395 0.250485 0.033825
vn -0.7627 0.5572 -0.3284
vn -0.4146 0.8488 -0.3281
vn -0.6123 0.4598 -0.6432
vn -0.9224 0.1386 -0.3605
vn -0.3506 0.6814 -0.6425
vn 0.0353 0.9302 -0.3653
vn -0.7332 0.1546 -0.6622
vn -0.0039 0.7378 -0.6750
vn -0.6855 -0.1942 -0.7017
vn -0.8532 -0.3135 -0.4169
vn 0.3184 0.6172 -0.7196
vn 0.4688 0.7761 -0.4219
vn -0.4628 -0.4628 -0.7560
vn -0.5751 -0.6624 -0.4802
vn 0.5224 0.3575 -0.7741
vn 0.7584 0.4283 -0.4914
vn -0.1383 -0.5807 -0.8023
vn -0.1461 -0.8331 -0.5335
vn 0.5787 0.0197 -0.8153
vn 0.8370 -0.0275 -0.5465
vn 0.2095 -0.5098 -0.8344
vn 0.3185 -0.7510 -0.5784
vn 0.6755 -0.4543 -0.5809
vn 0.4702 -0.2884 -0.8341
vn -0.1071 0.1150 -0.9876
vn 0.7712 0.5834 -0.2547
vn 0.6303 0.5207 -0.5759
vn 0.4272 0.8740 -0.2316
vn 0.9289 0.1764 -0.3257
vn 0.3656 0.7420 -0.5619
vn -0.0196 0.9623 -0.2713
vn 0.7502 0.2161 -0.6249
vn 0.0275 0.7981 -0.6018
vn 0.6977 -0.1221 -0.7059
vn 0.8644 -0.2723 -0.4227
vn -0.2961 0.6909 -0.6596
vn -0.4607 0.8153 -0.3508
vn 0.4856 -0.3829 -0.7859
vn 0.5893 -0.6129 -0.5264
vn -0.5029 0.4317 -0.7488
vn -0.7440 0.4763 -0.4687
vn 0.1626 -0.4957 -0.8531
vn 0.1624 -0.7722 -0.6143
vn -0.5559 0.1065 -0.8244
vn -0.8223 0.0278 -0.5684
vn -0.1853 -0.4218 -0.8875
vn -0.2977 -0.6944 -0.6551
vn -0.6599 -0.3991 -0.6366
vn -0.4457 -0.2011 -0.8723
vn 0.1383 0.2094 -0.9680
vn 0.1624 -0.7726 -0.6138
vn 0.1381 -0.9587 -0.2486
vn -0.2977 -0.6948 -0.6547
vn 0.5894 -0.6133 -0.5258
vn -0.3770 -0.8771 -0.2977
vn -0.6602 -0.3993 -0.6361
vn 0.6102 -0.7756 -0.1614
vn -0.7903 -0.5440 -0.2820
vn 0.9210 -0.3880 -0.0353
vn 0.8646 -0.2725 -0.4221
vn 0.0830 -0.9670 0.2407
vn 0.5154 -0.7986 0.3108
vn 0.9916 0.1058 0.0745
vn 0.9291 0.1764 -0.3250
vn 0.7713 0.5834 -0.2543
vn 0.7964 -0.4354 0.4198
vn 0.8166 0.5588 0.1446
vn 0.4273 0.8741 -0.2309
vn 0.8582 0.0039 0.5133
vn 0.4336 0.8868 0.1602
vn -0.0196 0.9624 -0.2708
vn 0.6984 0.4175 0.5813
vn -0.0665 0.9894 0.1291
vn -0.4609 0.8154 -0.3502
vn 0.3548 0.7134 0.6043
vn 0.5064 0.2395 0.8284
vn 0.2303 0.4646 0.8551
vn -0.1059 0.8043 0.5847
vn -0.5551 0.8306 0.0433
vn -0.5450 0.6626 0.5137
vn -0.8911 0.4475 -0.0752
vn -0.7441 0.4764 -0.4683
vn -0.1058 0.5288 0.8422
vn -0.9781 -0.0515 -0.2019
vn -0.8225 0.0278 -0.5680
vn -0.8539 0.3266 0.4053
vn -0.9449 -0.1378 0.2968
vn -0.4354 0.4198 0.7964
vn -0.6638 0.1768 0.7267
vn -0.7648 -0.6062 0.2180
vn -0.1060 0.3888 0.9152
vn -0.3754 -0.9047 0.2015
vn -0.5795 -0.5480 0.6032
vn -0.7294 -0.1853 0.6585
vn -0.3039 -0.7617 0.5722
vn -0.5543 -0.2083 0.8058
vn -0.5147 0.0904 0.8526
vn -0.3582 0.2952 0.8857
vn -0.2781 0.1292 0.9518
vn -0.0980 0.1921 0.9765
vn -0.3976 -0.0118 0.9175
vn -0.0591 -0.1927 0.9795
vn 0.1056 0.1603 0.9814
vn -0.4200 -0.2081 0.8833
vn -0.4543 -0.4859 0.7467
vn -0.3588 -0.3904 0.8479
vn -0.2566 -0.6593 0.7067
vn 0.0276 -0.8150 0.5788
vn -0.2087 -0.5159 0.8309
vn -0.0197 -0.5409 0.8409
vn 0.0039 -0.7032 0.7110
vn 0.1536 -0.4685 0.8700
vn 0.2554 -0.6092 0.7507
vn 0.3504 -0.6968 0.6259
vn 0.2713 -0.3185 0.9083
vn 0.4444 -0.3736 0.8142
vn 0.5766 -0.4041 0.7101
vn 0.3186 -0.1219 0.9400
vn 0.4969 -0.0743 0.8646
vn 0.6279 -0.0585 0.7761
vn 0.2543 0.0430 0.9662
vn 0.4020 0.1600 0.9016
vn 0.1835 0.3319 0.9253
vn 0.0354 0.9304 -0.3647
vn -0.4146 0.8490 -0.3275
vn 0.0743 0.9969 0.0273
vn 0.4689 0.7762 -0.4214
vn -0.4288 0.9009 0.0669
vn -0.7629 0.5573 -0.3277
vn 0.5608 0.8275 -0.0274
vn -0.8131 0.5774 0.0746
vn 0.8948 0.4337 -0.1055
vn 0.7585 0.4284 -0.4910
vn -0.9933 0.1069 0.0435
vn -0.9226 0.1386 -0.3601
vn -0.8533 -0.3136 -0.4165
vn -0.7055 0.4769 0.5242
vn -0.3575 0.7740 0.5226
vn -0.9161 -0.4005 -0.0198
vn -0.5752 -0.6626 -0.4797
vn 0.0979 0.8575 0.5051
vn -0.6070 -0.7895 -0.0912
vn -0.2391 0.5449 0.8037
vn 0.5439 0.7083 0.4500
vn 0.0980 0.6077 0.7881
vn -0.5128 0.3249 0.7946
vn 0.8502 0.3644 0.3801
vn -0.8689 0.0590 0.4915
vn -0.1923 0.4278 0.8832
vn -0.7985 -0.3972 0.4524
vn -0.6412 0.0197 0.7671
vn -0.4127 0.2476 0.8766
vn -0.5872 -0.3350 0.7369
vn -0.5187 -0.7641 0.3836
vn -0.5075 0.0118 0.8616
vn -0.3592 -0.6276 0.6907
vn -0.2706 0.1372 0.9529
vn -0.4518 -0.2868 0.8448
vn -0.3255 -0.0275 0.9451
vn -0.1136 0.2548 0.9603
vn -0.2869 -0.2240 0.9314
vn 0.0903 0.4749 0.8754
vn 0.0511 -0.0904 0.9946
vn 0.0825 0.2867 0.9545
vn 0.4267 0.4971 0.7555
vn 0.3483 0.3796 0.8571
vn 0.2629 0.2238 0.9385
vn 0.6520 0.2538 0.7145
vn 0.5030 0.1755 0.8463
vn 0.3804 0.0745 0.9218
vn 0.7249 -0.1215 0.6781
vn 0.5425 -0.1210 0.8313
vn 0.9385 -0.1139 0.3259
vn 0.4111 -0.1136 0.9045
vn 0.5841 -0.4901 0.6470
vn 0.4495 -0.4104 0.7934
vn 0.3412 -0.3019 0.8902
vn 0.2560 -0.5869 0.7681
vn 0.1999 -0.4271 0.8818
vn 0.0118 -0.4519 0.8920
vn -0.1615 -0.3821 0.9099
vn -0.0039 -0.6280 0.7782
vn -0.2633 -0.5306 0.8057
vn -0.0276 -0.7525 0.6580
vn 0.3102 -0.7029 0.6401
vn -0.0825 -0.9390 0.3340
vn 0.3896 -0.8697 0.3030
vn -0.1230 -0.9803 -0.1548
vn -0.1461 -0.8335 -0.5329
vn 0.3186 -0.7514 -0.5778
vn 0.3921 -0.8992 -0.1941
vn 0.6756 -0.4545 -0.5805
vn 0.7972 -0.5695 -0.2003
vn 0.7600 -0.5789 0.2954
vn 0.9829 -0.0744 -0.1684
vn 0.8373 -0.0276 -0.5461
vt 0.038544 0.950623
vt 0.065063 0.970779
vt 0.061188 0.933228
vt 0.025787 0.919922
vt 0.075684 0.944366
vt 0.097839 0.975113
vt 0.054077 0.916199
vt 0.093994 0.946808
vt 0.056580 0.897888
vt 0.030273 0.886963
vt 0.111145 0.939667
vt 0.128418 0.962402
vt 0.067627 0.883423
vt 0.050293 0.860718
vt 0.122253 0.925110
vt 0.148560 0.935852
vt 0.084656 0.876282
vt 0.080994 0.848022
vt 0.124634 0.906860
vt 0.152954 0.903076
vt 0.103088 0.878723
vt 0.113708 0.852417
vt 0.140137 0.872437
vt 0.117493 0.889771
vt 0.089355 0.911560
vt 0.560059 0.039062
vt 0.550293 0.111816
vt 0.322021 0.071777
vt 0.782715 0.131348
vt 0.349609 0.139160
vt 0.131104 0.217285
vt 0.737793 0.189453
vt 0.188721 0.261719
vt 0.860840 0.350098
vt 0.928711 0.323242
vt 0.540527 0.184570
vt 0.692383 0.248047
vt 0.888184 0.551270
vt 0.960938 0.560303
vt 0.868652 0.782837
vt 0.791992 0.378906
vt 0.810059 0.739014
vt 0.676758 0.928772
vt 0.814453 0.541504
vt 0.648438 0.861450
vt 0.439209 0.960907
vt 0.751953 0.694092
vt 0.448486 0.888367
vt 0.216675 0.868774
vt 0.621094 0.793823
vt 0.667969 0.631348
vt 0.580078 0.698242
vt 0.458252 0.815674
vt 0.260742 0.810669
vt 0.305420 0.752808
vt 0.138062 0.649414
vt 0.071106 0.677002
vt 0.472168 0.712402
vt 0.110901 0.449219
vt 0.038849 0.439941
vt 0.205200 0.621826
vt 0.183472 0.458984
vt 0.370361 0.670898
vt 0.302246 0.583008
vt 0.246460 0.306641
vt 0.485596 0.611816
vt 0.377441 0.206543
vt 0.330566 0.368652
vt 0.287109 0.471680
vt 0.418701 0.301758
vt 0.387451 0.485352
vt 0.395508 0.543945
vt 0.431885 0.590088
vt 0.463623 0.547119
vt 0.492188 0.558594
vt 0.444580 0.522705
vt 0.499756 0.500000
vt 0.522461 0.554443
vt 0.440430 0.492188
vt 0.410400 0.430664
vt 0.452393 0.463867
vt 0.457275 0.395996
vt 0.526855 0.287598
vt 0.477051 0.445801
vt 0.507324 0.441895
vt 0.514160 0.388672
vt 0.536133 0.453125
vt 0.567871 0.410156
vt 0.628418 0.329590
vt 0.555176 0.477539
vt 0.604492 0.456543
vt 0.696289 0.417480
vt 0.559082 0.507812
vt 0.612305 0.514893
vt 0.711426 0.528320
vt 0.546875 0.536133
vt 0.589355 0.569336
vt 0.542480 0.604248
s 1
usemtl F_Luna_014_Eyes3.003
f 3/1/1 1/2/2 2/3/3
f 3/1/1 2/3/3 4/4/4
f 5/5/5 2/3/3 1/2/2
f 1/2/2 6/6/6 5/5/5
f 7/7/7 4/4/4 2/3/3
f 8/8/8 5/5/5 6/6/6
f 7/7/7 9/9/9 4/4/4
f 10/10/10 4/4/4 9/9/9
f 8/8/8 6/6/6 11/11/11
f 12/12/12 11/11/11 6/6/6
f 9/9/9 13/13/13 10/10/10
f 14/14/14 10/10/10 13/13/13
f 11/11/11 12/12/12 15/15/15
f 12/12/12 16/16/16 15/15/15
f 17/17/17 14/14/14 13/13/13
f 17/17/17 18/18/18 14/14/14
f 16/16/16 19/19/19 15/15/15
f 16/16/16 20/20/20 19/19/19
f 17/17/17 21/21/21 18/18/18
f 22/22/22 18/18/18 21/21/21
f 22/22/22 21/21/21 23/23/23
f 23/23/23 24/24/24 20/20/20
f 24/24/24 23/23/23 21/21/21
f 24/24/24 19/19/19 20/20/20
f 25/25/25 21/21/21 17/17/17
f 25/25/25 24/24/24 21/21/21
f 25/25/25 19/19/19 24/24/24
f 25/25/25 17/17/17 13/13/13
f 25/25/25 15/15/15 19/19/19
f 25/25/25 13/13/13 9/9/9
f 25/25/25 11/11/11 15/15/15
f 25/25/25 9/9/9 7/7/7
f 25/25/25 8/8/8 11/11/11
f 25/25/25 7/7/7 2/3/3
f 25/25/25 5/5/5 8/8/8
f 25/25/25 2/3/3 5/5/5
f 28/1/26 26/3/27 27/2/28
f 28/1/26 29/4/29 26/3/27
f 30/5/30 27/2/28 26/3/27
f 27/2/28 30/5/30 31/6/31
f 32/7/32 26/3/27 29/4/29
f 33/8/33 31/6/31 30/5/30
f 32/7/32 29/4/29 34/9/34
f 35/10/35 34/9/34 29/4/29
f 36/11/36 31/6/31 33/8/33
f 31/6/31 36/11/36 37/12/37
f 34/9/34 35/10/35 38/13/38
f 39/14/39 38/13/38 35/10/35
f 40/15/40 37/12/37 36/11/36
f 40/15/40 41/16/41 37/12/37
f 38/13/38 39/14/39 42/17/42
f 39/14/39 43/18/43 42/17/42
f 40/15/40 44/19/44 41/16/41
f 44/19/44 45/20/45 41/16/41
f 42/17/42 43/18/43 46/21/46
f 47/22/47 46/21/46 43/18/43
f 47/22/47 48/23/48 46/21/46
f 45/20/45 49/24/49 48/23/48
f 49/24/49 46/21/46 48/23/48
f 44/19/44 49/24/49 45/20/45
f 42/17/42 46/21/46 50/25/50
f 46/21/46 49/24/49 50/25/50
f 49/24/49 44/19/44 50/25/50
f 38/13/38 42/17/42 50/25/50
f 44/19/44 40/15/40 50/25/50
f 34/9/34 38/13/38 50/25/50
f 40/15/40 36/11/36 50/25/50
f 32/7/32 34/9/34 50/25/50
f 36/11/36 33/8/33 50/25/50
f 26/3/27 32/7/32 50/25/50
f 33/8/33 30/5/30 50/25/50
f 30/5/30 26/3/27 50/25/50
f 53/26/51 51/27/52 52/28/53
f 54/29/54 51/27/52 53/26/51
f 55/30/55 52/28/53 51/27/52
f 52/28/53 55/30/55 56/31/56
f 54/29/54 57/32/57 51/27/52
f 58/33/58 56/31/56 55/30/55
f 57/32/57 54/29/54 59/34/59
f 60/35/60 59/34/59 54/29/54
f 51/27/52 57/32/57 61/36/61
f 51/27/52 61/36/61 55/30/55
f 57/32/57 59/34/59 62/37/62
f 62/37/62 61/36/61 57/32/57
f 59/34/59 60/35/60 63/38/63
f 64/39/64 63/38/63 60/35/60
f 65/40/65 63/38/63 64/39/64
f 66/41/66 62/37/62 59/34/59
f 66/41/66 59/34/59 63/38/63
f 65/40/65 67/42/67 63/38/63
f 65/40/65 68/43/68 67/42/67
f 69/44/69 66/41/66 63/38/63
f 70/45/70 67/42/67 68/43/68
f 71/46/71 70/45/70 68/43/68
f 67/42/67 72/47/72 63/38/63
f 67/42/67 70/45/70 72/47/72
f 69/44/69 63/38/63 72/47/72
f 71/46/71 73/48/73 70/45/70
f 74/49/74 73/48/73 71/46/71
f 75/50/75 72/47/72 70/45/70
f 70/45/70 73/48/73 75/50/75
f 72/47/72 76/51/76 69/44/69
f 75/50/75 77/52/77 72/47/72
f 76/51/76 72/47/72 77/52/77
f 78/53/78 75/50/75 73/48/73
f 75/50/75 78/53/78 77/52/77
f 74/49/74 79/54/79 73/48/73
f 73/48/73 80/55/80 78/53/78
f 79/54/79 80/55/80 73/48/73
f 79/54/79 74/49/74 81/56/81
f 79/54/79 81/56/81 80/55/80
f 82/57/82 81/56/81 74/49/74
f 78/53/78 80/55/80 83/58/83
f 83/58/83 77/52/77 78/53/78
f 81/56/81 82/57/82 84/59/84
f 85/60/85 84/59/84 82/57/82
f 56/31/56 84/59/84 85/60/85
f 56/31/56 58/33/58 84/59/84
f 81/56/81 84/59/84 86/61/86
f 86/61/86 80/55/80 81/56/81
f 84/59/84 58/33/58 87/62/87
f 87/62/87 86/61/86 84/59/84
f 80/55/80 86/61/86 88/63/88
f 88/63/88 83/58/83 80/55/80
f 87/62/87 89/64/89 86/61/86
f 89/64/89 88/63/88 86/61/86
f 90/65/90 87/62/87 58/33/58
f 83/58/83 88/63/88 91/66/91
f 90/65/90 58/33/58 92/67/92
f 55/30/55 92/67/92 58/33/58
f 92/67/92 55/30/55 61/36/61
f 90/65/90 93/68/93 87/62/87
f 90/65/90 92/67/92 93/68/93
f 94/69/94 87/62/87 93/68/93
f 87/62/87 94/69/94 89/64/89
f 95/70/95 93/68/93 92/67/92
f 92/67/92 61/36/61 95/70/95
f 96/71/96 94/69/94 93/68/93
f 89/64/89 94/69/94 97/72/97
f 96/71/96 97/72/97 94/69/94
f 88/63/88 89/64/89 98/73/98
f 97/72/97 98/73/98 89/64/89
f 98/73/98 91/66/91 88/63/88
f 98/73/98 97/72/97 99/74/99
f 91/66/91 98/73/98 100/75/100
f 99/74/99 100/75/100 98/73/98
f 101/76/101 99/74/99 97/72/97
f 97/72/97 96/71/96 101/76/101
f 100/75/100 99/74/99 102/77/102
f 99/74/99 101/76/101 102/77/102
f 100/75/100 103/78/103 91/66/91
f 103/78/103 100/75/100 102/77/102
f 104/79/104 101/76/101 96/71/96
f 101/76/101 104/79/104 102/77/102
f 96/71/96 93/68/93 105/80/105
f 104/79/104 96/71/96 105/80/105
f 105/80/105 93/68/93 95/70/95
f 104/79/104 105/80/105 106/81/106
f 104/79/104 106/81/106 102/77/102
f 107/82/107 105/80/105 95/70/95
f 106/81/106 105/80/105 107/82/107
f 108/83/108 107/82/107 95/70/95
f 108/83/108 95/70/95 61/36/61
f 109/84/109 106/81/106 107/82/107
f 106/81/106 109/84/109 102/77/102
f 109/84/109 107/82/107 110/85/110
f 109/84/109 110/85/110 102/77/102
f 111/86/111 110/85/110 107/82/107
f 108/83/108 111/86/111 107/82/107
f 110/85/110 111/86/111 112/87/112
f 110/85/110 112/87/112 102/77/102
f 111/86/111 108/83/108 113/88/113
f 113/88/113 112/87/112 111/86/111
f 108/83/108 61/36/61 114/89/114
f 114/89/114 113/88/113 108/83/108
f 62/37/62 114/89/114 61/36/61
f 112/87/112 113/88/113 115/90/115
f 112/87/112 115/90/115 102/77/102
f 113/88/113 114/89/114 116/91/116
f 115/90/115 113/88/113 116/91/116
f 114/89/114 62/37/62 117/92/117
f 117/92/117 116/91/116 114/89/114
f 117/92/117 62/37/62 66/41/66
f 115/90/115 116/91/116 118/93/118
f 115/90/115 118/93/118 102/77/102
f 116/91/116 117/92/117 119/94/119
f 119/94/119 118/93/118 116/91/116
f 117/92/117 66/41/66 120/95/120
f 120/95/120 119/94/119 117/92/117
f 69/44/69 120/95/120 66/41/66
f 120/95/120 69/44/69 76/51/76
f 118/93/118 121/96/121 102/77/102
f 118/93/118 119/94/119 121/96/121
f 121/96/121 103/78/103 102/77/102
f 119/94/119 120/95/120 122/97/122
f 122/97/122 121/96/121 119/94/119
f 76/51/76 122/97/122 120/95/120
f 121/96/121 122/97/122 103/78/103
f 122/97/122 76/51/76 123/98/123
f 123/98/123 103/78/103 122/97/122
f 77/52/77 123/98/123 76/51/76
f 123/98/123 91/66/91 103/78/103
f 77/52/77 83/58/83 123/98/123
f 91/66/91 123/98/123 83/58/83
f 126/46/124 124/43/125 125/48/126
f 126/46/124 125/48/126 127/49/127
f 128/45/128 125/48/126 124/43/125
f 129/40/129 128/45/128 124/43/125
f 130/54/130 127/49/127 125/48/126
f 129/40/129 131/42/131 128/45/128
f 130/54/130 132/56/132 127/49/127
f 133/57/133 127/49/127 132/56/132
f 134/38/134 131/42/131 129/40/129
f 135/39/135 134/38/134 129/40/129
f 135/39/135 136/35/136 134/38/134
f 131/42/131 137/47/137 128/45/128
f 134/38/134 137/47/137 131/42/131
f 138/50/138 128/45/128 137/47/137
f 128/45/128 138/50/138 125/48/126
f 139/34/139 134/38/134 136/35/136
f 136/35/136 140/29/140 139/34/139
f 141/53/141 125/48/126 138/50/138
f 142/32/142 139/34/139 140/29/140
f 143/52/143 141/53/141 138/50/138
f 138/50/138 137/47/137 143/52/143
f 125/48/126 141/53/141 144/55/144
f 125/48/126 144/55/144 130/54/130
f 130/54/130 144/55/144 132/56/132
f 145/58/145 141/53/141 143/52/143
f 145/58/145 144/55/144 141/53/141
f 146/51/146 143/52/143 137/47/137
f 147/61/147 132/56/132 144/55/144
f 137/47/137 148/44/148 146/51/146
f 134/38/134 148/44/148 137/47/137
f 143/52/143 146/51/146 149/98/149
f 143/52/143 149/98/149 145/58/145
f 150/41/150 148/44/148 134/38/134
f 139/34/139 150/41/150 134/38/134
f 151/95/151 146/51/146 148/44/148
f 148/44/148 150/41/150 151/95/151
f 146/51/146 151/95/151 152/97/152
f 152/97/152 149/98/149 146/51/146
f 153/92/153 151/95/151 150/41/150
f 139/34/139 154/37/154 150/41/150
f 150/41/150 154/37/154 153/92/153
f 142/32/142 154/37/154 139/34/139
f 151/95/151 153/92/153 155/94/155
f 155/94/155 152/97/152 151/95/151
f 156/89/156 153/92/153 154/37/154
f 152/97/152 155/94/155 157/96/157
f 152/97/152 157/96/157 149/98/149
f 158/91/158 155/94/155 153/92/153
f 153/92/153 156/89/156 158/91/158
f 159/93/159 157/96/157 155/94/155
f 155/94/155 158/91/158 159/93/159
f 160/78/160 149/98/149 157/96/157
f 161/90/161 159/93/159 158/91/158
f 160/78/160 162/66/162 149/98/149
f 162/66/162 145/58/145 149/98/149
f 163/77/163 157/96/157 159/93/159
f 163/77/163 160/78/160 157/96/157
f 163/77/163 159/93/159 161/90/161
f 164/75/164 162/66/162 160/78/160
f 163/77/163 164/75/164 160/78/160
f 145/58/145 162/66/162 165/63/165
f 165/63/165 144/55/144 145/58/145
f 144/55/144 165/63/165 147/61/147
f 162/66/162 164/75/164 166/73/166
f 166/73/166 165/63/165 162/66/162
f 167/74/167 166/73/166 164/75/164
f 163/77/163 167/74/167 164/75/164
f 166/73/166 168/64/168 165/63/165
f 168/64/168 147/61/147 165/63/165
f 166/73/166 167/74/167 169/72/169
f 168/64/168 166/73/166 169/72/169
f 170/76/170 169/72/169 167/74/167
f 163/77/163 170/76/170 167/74/167
f 168/64/168 169/72/169 171/69/171
f 169/72/169 170/76/170 172/71/172
f 172/71/172 171/69/171 169/72/169
f 147/61/147 168/64/168 173/62/173
f 168/64/168 171/69/171 173/62/173
f 174/79/174 172/71/172 170/76/170
f 163/77/163 174/79/174 170/76/170
f 171/69/171 172/71/172 175/68/175
f 171/69/171 175/68/175 173/62/173
f 172/71/172 174/79/174 176/80/176
f 176/80/176 175/68/175 172/71/172
f 177/81/177 176/80/176 174/79/174
f 163/77/163 177/81/177 174/79/174
f 177/81/177 178/82/178 176/80/176
f 163/77/163 179/84/179 177/81/177
f 177/81/177 179/84/179 178/82/178
f 163/77/163 180/85/180 179/84/179
f 179/84/179 180/85/180 178/82/178
f 163/77/163 181/87/181 180/85/180
f 163/77/163 161/90/161 181/87/181
f 182/86/182 178/82/178 180/85/180
f 180/85/180 181/87/181 182/86/182
f 181/87/181 161/90/161 183/88/183
f 183/88/183 182/86/182 181/87/181
f 158/91/158 183/88/183 161/90/161
f 183/88/183 158/91/158 156/89/156
f 182/86/182 183/88/183 184/83/184
f 156/89/156 184/83/184 183/88/183
f 178/82/178 182/86/182 185/70/185
f 184/83/184 185/70/185 182/86/182
f 176/80/176 178/82/178 185/70/185
f 176/80/176 185/70/185 175/68/175
f 184/83/184 156/89/156 186/36/186
f 186/36/186 185/70/185 184/83/184
f 154/37/154 186/36/186 156/89/156
f 175/68/175 185/70/185 187/67/187
f 185/70/185 186/36/186 187/67/187
f 186/36/186 154/37/154 188/27/188
f 188/27/188 187/67/187 186/36/186
f 142/32/142 188/27/188 154/37/154
f 188/27/188 142/32/142 140/29/140
f 189/26/189 188/27/188 140/29/140
f 189/26/189 190/28/190 188/27/188
f 191/30/191 188/27/188 190/28/190
f 191/30/191 187/67/187 188/27/188
f 190/28/190 192/31/192 191/30/191
f 191/30/191 193/33/193 187/67/187
f 193/33/193 191/30/191 192/31/192
f 175/68/175 187/67/187 194/65/194
f 194/65/194 187/67/187 193/33/193
f 194/65/194 173/62/173 175/68/175
f 193/33/193 192/31/192 195/59/195
f 193/33/193 195/59/195 194/65/194
f 173/62/173 194/65/194 195/59/195
f 196/60/196 195/59/195 192/31/192
f 173/62/173 195/59/195 147/61/147
f 196/60/196 133/57/133 195/59/195
f 132/56/132 147/61/147 195/59/195
f 132/56/132 195/59/195 133/57/133
